<svg width="142" height="40" viewBox="0 0 142 40" fill="none" xmlns="http://www.w3.org/2000/svg">
<g clip-path="url(#clip0_50510_19659)">
<path d="M5.9241 15.3065V19.2512H0.992188V15.3065H5.21346H5.9241Z" fill="#8CC640"/>
<path d="M5.9241 21.2219V38.9709H0.992188V21.2219H5.21346H5.9241Z" fill="white"/>
<path d="M9.86719 38.9702V21.2255H13.2544L13.7991 23.8298C15.4629 22.0936 17.3565 21.2255 19.48 21.2255C23.5863 21.2255 25.6417 23.4127 25.6417 27.783V38.9702H20.714V27.7957C20.714 25.8383 19.7778 24.8596 17.9055 24.8596C16.5097 24.8596 15.1438 25.4383 13.8119 26.6V38.9744H9.86719V38.9702Z" fill="white"/>
<path d="M27.6523 21.2207H32.3843L36.6949 33.6292L41.1715 21.2207H45.9034L38.6906 38.9696H34.4311L27.6523 21.2207Z" fill="white"/>
<path d="M51.599 29.1105H59.1607V28.9743C59.1607 26.519 57.9224 25.2935 55.4458 25.2935C52.9692 25.2935 51.799 26.5658 51.599 29.1062M55.0968 21.6339C60.4756 21.6339 63.1649 24.3786 63.1649 29.8722C63.1649 30.6041 63.1139 31.336 63.0117 32.0679H51.2458C51.2458 34.5658 53.0798 35.8126 56.7479 35.8126C58.5394 35.8126 60.3266 35.6424 62.1181 35.3062V38.8509C60.5522 39.1871 58.65 39.3573 56.4117 39.3573C49.9862 39.3573 46.7734 36.336 46.7734 30.2892C46.7734 24.2424 49.5479 21.6296 55.0968 21.6296" fill="white"/>
<path d="M67.0442 38.6087V34.664C69.0825 35.5023 71.4357 35.9194 74.1038 35.9194C76.0953 35.9194 77.091 35.2598 77.091 33.9491C77.091 32.6385 76.4229 32.0683 75.0825 32.0683H71.7634C68.0357 32.0683 66.1719 30.1874 66.1719 26.4215C66.1719 22.6555 68.891 20.5066 74.3293 20.5066C76.6357 20.5066 78.8059 20.864 80.8485 21.5832V25.5279C78.8102 24.6896 76.5974 24.2725 74.2102 24.2725C71.708 24.2725 70.4527 24.9279 70.4527 26.2428C70.4527 27.5577 71.1804 28.1236 72.6357 28.1236H75.6059C79.6783 28.1236 81.7208 30.0045 81.7208 33.7704C81.7208 37.5364 79.1251 39.6853 73.9293 39.6853C71.3804 39.6853 69.0825 39.3279 67.0442 38.6087Z" fill="white"/>
<path d="M95.6378 38.9703V21.2256H98.8932L99.4506 23.7915C101.004 22.2852 102.646 21.5277 104.51 21.5277V25.1405C102.714 25.1405 100.566 27.2171 100.566 27.2171V38.9703H95.4336H95.6378Z" fill="white"/>
<path d="M110.755 29.1106H118.317V28.9745C118.317 26.5192 117.079 25.2936 114.602 25.2936C112.125 25.2936 110.955 26.566 110.755 29.1064M114.253 21.634C119.632 21.634 122.321 24.3787 122.321 29.8723C122.321 30.6043 122.27 31.3362 122.168 32.0681H110.402C110.402 34.566 112.236 35.8128 115.904 35.8128C117.696 35.8128 119.483 35.6426 121.274 35.3064V38.8511C119.708 39.1872 117.806 39.3575 115.568 39.3575C109.142 39.3575 105.93 36.3362 105.93 30.2894C105.93 24.2426 108.704 21.6298 114.249 21.6298" fill="white"/>
<path d="M129.486 29.1105H137.047V28.9743C137.047 26.519 135.809 25.2935 133.332 25.2935C130.856 25.2935 129.686 26.5658 129.486 29.1062M132.984 21.6339C138.362 21.6339 141.052 24.3786 141.052 29.8722C141.052 30.6041 141.001 31.336 140.903 32.0679H129.137C129.137 34.5658 130.971 35.8126 134.639 35.8126C136.43 35.8126 138.218 35.6424 140.005 35.3062V38.8509C138.439 39.1871 136.537 39.3573 134.298 39.3573C127.873 39.3573 124.66 36.336 124.66 30.2892C124.66 24.2424 127.435 21.6296 132.984 21.6296" fill="white"/>
<path d="M96.9781 7.80425C97.3313 5.89786 96.8632 3.85957 95.527 2.31914C93.2419 -0.319158 89.2845 -0.514904 86.693 1.88935C86.6547 1.92339 86.6164 1.96169 86.5823 1.99573C84.2802 -0.370223 80.5866 -0.548946 78.1058 1.66382C76.3909 3.19574 75.6845 5.4851 76.0419 7.64254C73.1696 8.13191 70.91 10.4425 70.7228 13.3574C70.5185 16.5064 74.3015 19.5659 77.4504 20.1787L77.3185 17.3787C75.7526 16.7872 74.0845 15.2766 74.1951 13.5787C74.3015 11.9362 75.476 10.6128 77.0292 10.1745C77.4632 10.0511 77.927 10.0042 78.4036 10.034C78.5653 10.0425 78.727 10.0638 78.8887 10.0936L79.3909 8.68084C79.2845 8.41276 79.2121 8.12765 79.1696 7.83829C79.1355 7.58297 79.127 7.32765 79.1441 7.05957C79.2802 4.96169 81.0632 3.36595 83.1313 3.49786C83.8632 3.54467 84.527 3.79999 85.0802 4.20425C85.2121 4.30212 85.3355 4.4085 85.4547 4.51914C85.51 4.5702 85.5611 4.62552 85.6164 4.68084C85.8377 4.91914 86.0292 5.18722 86.1866 5.47659C86.2036 5.50637 86.2206 5.54042 86.2377 5.57446C86.2589 5.61701 86.276 5.65531 86.2972 5.69786L86.7611 5.76169C86.7781 5.7234 86.7994 5.6851 86.8206 5.65105C86.8377 5.61701 86.8589 5.57871 86.8802 5.54467C87.1696 5.0468 87.5696 4.62127 88.0419 4.30212C88.7185 3.83829 89.5483 3.59148 90.4249 3.65106C92.5355 3.78723 94.1355 5.62127 93.9994 7.74893C93.9994 7.79148 93.9909 7.82978 93.9866 7.87233C93.944 8.29361 93.8377 8.69786 93.6717 9.06808L94.1823 10.3064C94.4632 10.2681 94.7568 10.2553 95.0547 10.2766C95.3441 10.2936 95.6206 10.3404 95.8845 10.4128C97.6632 10.8808 98.9228 12.4553 98.8079 14.2255C98.71 15.7745 97.5909 17.0383 96.093 17.4894L96.0419 20.017C98.8802 19.4979 101.995 17.2042 102.182 14.3191C102.382 11.1787 100.119 8.42978 96.9823 7.80425" fill="#8CC640"/>
<path d="M92.6787 35.7069V39.2515C90.6021 39.0515 88.134 39.9026 86.2744 38.7154C84.4191 37.5281 84.2148 35.4898 84.2659 33.5239C84.3893 28.8686 84.2616 24.1749 84.2404 19.5196C84.2318 17.9749 84.2531 14.6898 84.2404 13.1494C85.3042 14.3622 86.9893 17.4686 87.6148 18.9409C87.9042 19.6175 88.0021 20.4473 88.151 21.2005L93.6786 19.4047C93.6786 19.4047 91.385 24.1154 88.7084 25.9026C88.6999 28.2218 88.6829 30.5409 88.7127 32.8558C88.751 35.6473 90.3467 35.6771 92.6744 35.7111" fill="white"/>
</g>
<defs>
<clipPath id="clip0_50510_19659">
<rect width="140.426" height="40" fill="white" transform="translate(0.957031)"/>
</clipPath>
</defs>
</svg>
