<svg width="141" height="40" viewBox="0 0 141 40" fill="none" xmlns="http://www.w3.org/2000/svg">
<g clip-path="url(#clip0_50255_2170)">
<path d="M4.96707 15.3076V19.2523H0.0351562V15.3076H4.25643H4.96707Z" fill="#8CC640"/>
<path d="M4.96707 21.2207V38.9696H0.0351562V21.2207H4.25643H4.96707Z" fill="white"/>
<path d="M8.91016 38.9703V21.2256H12.2974L12.8421 23.8298C14.5059 22.0937 16.3995 21.2256 18.5229 21.2256C22.6293 21.2256 24.6846 23.4128 24.6846 27.783V38.9703H19.757V27.7958C19.757 25.8384 18.8208 24.8596 16.9485 24.8596C15.5527 24.8596 14.1868 25.4384 12.8548 26.6001V38.9745H8.91016V38.9703Z" fill="white"/>
<path d="M26.6953 21.2207H31.4272L35.7379 33.6292L40.2145 21.2207H44.9464L37.7336 38.9696H33.474L26.6953 21.2207Z" fill="white"/>
<path d="M50.6419 29.1117H58.2036V28.9755C58.2036 26.5202 56.9653 25.2947 54.4887 25.2947C52.0122 25.2947 50.8419 26.567 50.6419 29.1075M54.1398 21.6351C59.5185 21.6351 62.2079 24.3798 62.2079 29.8734C62.2079 30.6053 62.1568 31.3372 62.0547 32.0692H50.2887C50.2887 34.567 52.1228 35.8138 55.7909 35.8138C57.5824 35.8138 59.3696 35.6436 61.1611 35.3075V38.8521C59.5951 39.1883 57.693 39.3585 55.4547 39.3585C49.0292 39.3585 45.8164 36.3372 45.8164 30.2904C45.8164 24.2436 48.5909 21.6309 54.1398 21.6309" fill="white"/>
<path d="M66.0872 38.607V34.6623C68.1255 35.5006 70.4787 35.9176 73.1468 35.9176C75.1382 35.9176 76.134 35.2581 76.134 33.9474C76.134 32.6368 75.4659 32.0666 74.1255 32.0666H70.8063C67.0787 32.0666 65.2148 30.1857 65.2148 26.4198C65.2148 22.6538 67.934 20.5049 73.3723 20.5049C75.6787 20.5049 77.8489 20.8623 79.8914 21.5815V25.5262C77.8531 24.6879 75.6404 24.2708 73.2531 24.2708C70.751 24.2708 69.4957 24.9262 69.4957 26.2411C69.4957 27.5559 70.2234 28.1219 71.6787 28.1219H74.6489C78.7212 28.1219 80.7638 30.0028 80.7638 33.7687C80.7638 37.5347 78.168 39.6836 72.9723 39.6836C70.4234 39.6836 68.1255 39.3262 66.0872 38.607Z" fill="white"/>
<path d="M94.6808 38.9703V21.2256H97.9361L98.4936 23.7915C100.047 22.2852 101.689 21.5277 103.553 21.5277V25.1405C101.757 25.1405 99.6085 27.2171 99.6085 27.2171V38.9703H94.4766H94.6808Z" fill="white"/>
<path d="M109.794 29.1117H117.356V28.9755C117.356 26.5202 116.118 25.2947 113.641 25.2947C111.164 25.2947 109.994 26.567 109.794 29.1075M113.292 21.6351C118.671 21.6351 121.36 24.3798 121.36 29.8734C121.36 30.6053 121.309 31.3372 121.207 32.0692H109.441C109.441 34.567 111.275 35.8138 114.943 35.8138C116.735 35.8138 118.522 35.6436 120.313 35.3075V38.8521C118.747 39.1883 116.845 39.3585 114.607 39.3585C108.182 39.3585 104.969 36.3372 104.969 30.2904C104.969 24.2436 107.743 21.6309 113.288 21.6309" fill="white"/>
<path d="M128.529 29.1117H136.09V28.9755C136.09 26.5202 134.852 25.2947 132.375 25.2947C129.899 25.2947 128.729 26.567 128.529 29.1075M132.027 21.6351C137.405 21.6351 140.095 24.3798 140.095 29.8734C140.095 30.6053 140.044 31.3372 139.946 32.0692H128.18C128.18 34.567 130.014 35.8138 133.682 35.8138C135.473 35.8138 137.261 35.6436 139.048 35.3075V38.8521C137.482 39.1883 135.58 39.3585 133.341 39.3585C126.916 39.3585 123.703 36.3372 123.703 30.2904C123.703 24.2436 126.478 21.6309 132.027 21.6309" fill="white"/>
<path d="M96.0211 7.80425C96.3742 5.89786 95.9062 3.85957 94.57 2.31914C92.2849 -0.319158 88.3274 -0.514904 85.736 1.88935C85.6977 1.92339 85.6594 1.96169 85.6253 1.99573C83.3232 -0.370223 79.6296 -0.548946 77.1487 1.66382C75.4338 3.19574 74.7274 5.4851 75.0849 7.64254C72.2125 8.13191 69.953 10.4425 69.7657 13.3574C69.5615 16.5064 73.3445 19.5659 76.4934 20.1787L76.3615 17.3787C74.7955 16.7872 73.1274 15.2766 73.2381 13.5787C73.3445 11.9362 74.5189 10.6128 76.0721 10.1745C76.5062 10.0511 76.97 10.0042 77.4466 10.034C77.6083 10.0425 77.77 10.0638 77.9317 10.0936L78.4338 8.68084C78.3274 8.41276 78.2551 8.12765 78.2126 7.83829C78.1785 7.58297 78.17 7.32765 78.187 7.05957C78.3232 4.96169 80.1062 3.36595 82.1743 3.49786C82.9062 3.54467 83.57 3.79999 84.1232 4.20425C84.2551 4.30212 84.3785 4.4085 84.4977 4.51914C84.553 4.5702 84.604 4.62552 84.6594 4.68084C84.8806 4.91914 85.0721 5.18722 85.2296 5.47659C85.2466 5.50637 85.2636 5.54042 85.2806 5.57446C85.3019 5.61701 85.3189 5.65531 85.3402 5.69786L85.804 5.76169C85.8211 5.7234 85.8423 5.6851 85.8636 5.65105C85.8806 5.61701 85.9019 5.57871 85.9232 5.54467C86.2125 5.0468 86.6125 4.62127 87.0849 4.30212C87.7615 3.83829 88.5913 3.59148 89.4679 3.65106C91.5785 3.78723 93.1785 5.62127 93.0423 7.74893C93.0423 7.79148 93.0338 7.82978 93.0296 7.87233C92.987 8.29361 92.8806 8.69786 92.7147 9.06808L93.2253 10.3064C93.5062 10.2681 93.7998 10.2553 94.0977 10.2766C94.387 10.2936 94.6636 10.3404 94.9274 10.4128C96.7062 10.8808 97.9657 12.4553 97.8509 14.2255C97.753 15.7745 96.6338 17.0383 95.136 17.4894L95.0849 20.017C97.9232 19.4979 101.038 17.2042 101.225 14.3191C101.425 11.1787 99.1615 8.42978 96.0253 7.80425" fill="#8CC640"/>
<path d="M91.7216 35.7069V39.2515C89.645 39.0515 87.1769 39.9026 85.3174 38.7154C83.462 37.5281 83.2578 35.4898 83.3089 33.5239C83.4323 28.8686 83.3046 24.1749 83.2833 19.5196C83.2748 17.9749 83.2961 14.6898 83.2833 13.1494C84.3472 14.3622 86.0323 17.4686 86.6578 18.9409C86.9471 19.6175 87.045 20.4473 87.194 21.2005L92.7216 19.4047C92.7216 19.4047 90.428 24.1154 87.7514 25.9026C87.7429 28.2218 87.7259 30.5409 87.7557 32.8558C87.794 35.6473 89.3897 35.6771 91.7174 35.7111" fill="white"/>
</g>
<defs>
<clipPath id="clip0_50255_2170">
<rect width="140.426" height="40" fill="white"/>
</clipPath>
</defs>
</svg>
