<svg width="113" height="32" viewBox="0 0 113 32" fill="none" xmlns="http://www.w3.org/2000/svg">
<g clip-path="url(#clip0_38055_5939)">
<path d="M3.97288 12.2452V15.4009H0.0273438V12.2452H3.40437H3.97288Z" fill="#8CC640"/>
<path d="M3.97288 16.9775V31.1767H0.0273438V16.9775H3.40437H3.97288Z" fill="#113F7B"/>
<path d="M7.12891 31.1762V16.9804H9.83869L10.2744 19.0638C11.6055 17.6749 13.1204 16.9804 14.8191 16.9804C18.1042 16.9804 19.7485 18.7302 19.7485 22.2264V31.1762H15.8064V22.2366C15.8064 20.6706 15.0574 19.8876 13.5595 19.8876C12.4429 19.8876 11.3502 20.3506 10.2847 21.28V31.1796H7.12891V31.1762Z" fill="#113F7B"/>
<path d="M21.3555 16.9766H25.141L28.5895 26.9034L32.1708 16.9766H35.9563L30.1861 31.1757H26.7784L21.3555 16.9766Z" fill="#113F7B"/>
<path d="M40.5128 23.2884H46.5621V23.1795C46.5621 21.2152 45.5715 20.2348 43.5902 20.2348C41.6089 20.2348 40.6728 21.2526 40.5128 23.285M43.3111 17.3071C47.614 17.3071 49.7655 19.5029 49.7655 23.8978C49.7655 24.4833 49.7247 25.0688 49.643 25.6543H40.2302C40.2302 27.6526 41.6975 28.6501 44.6319 28.6501C46.0651 28.6501 47.4949 28.5139 48.9281 28.245V31.0807C47.6753 31.3497 46.1536 31.4858 44.363 31.4858C39.2226 31.4858 36.6523 29.0688 36.6523 24.2314C36.6523 19.3939 38.8719 17.3037 43.3111 17.3037" fill="#113F7B"/>
<path d="M52.8697 30.8868V27.731C54.5004 28.4017 56.3829 28.7353 58.5174 28.7353C60.1106 28.7353 60.9072 28.2076 60.9072 27.1591C60.9072 26.1106 60.3727 25.6545 59.3004 25.6545H56.6451C53.6629 25.6545 52.1719 24.1498 52.1719 21.137C52.1719 18.1242 54.3472 16.4051 58.6978 16.4051C60.5429 16.4051 62.2791 16.691 63.9132 17.2664V20.4221C62.2825 19.7515 60.5123 19.4179 58.6025 19.4179C56.6008 19.4179 55.5966 19.9421 55.5966 20.994C55.5966 22.0459 56.1787 22.4987 57.3429 22.4987H59.7191C62.977 22.4987 64.611 24.0034 64.611 27.0162C64.611 30.0289 62.5344 31.7481 58.3778 31.7481C56.3387 31.7481 54.5004 31.4621 52.8697 30.8868Z" fill="#113F7B"/>
<path d="M75.7454 31.1762V16.9805H78.3497L78.7956 19.0332C80.0382 17.8281 81.3522 17.2222 82.8433 17.2222V20.1124C81.4067 20.1124 79.6876 21.7737 79.6876 21.7737V31.1762H75.582H75.7454Z" fill="#113F7B"/>
<path d="M87.837 23.2885H93.8864V23.1796C93.8864 21.2153 92.8957 20.2349 90.9144 20.2349C88.9332 20.2349 87.997 21.2528 87.837 23.2851M90.6353 17.3072C94.9383 17.3072 97.0898 19.503 97.0898 23.8979C97.0898 24.4834 97.0489 25.0689 96.9672 25.6545H87.5544C87.5544 27.6528 89.0217 28.6502 91.9561 28.6502C93.3893 28.6502 94.8191 28.514 96.2523 28.2451V31.0809C94.9995 31.3498 93.4778 31.486 91.6872 31.486C86.5468 31.486 83.9766 29.0689 83.9766 24.2315C83.9766 19.394 86.1961 17.3038 90.6319 17.3038" fill="#113F7B"/>
<path d="M102.821 23.2884H108.871V23.1795C108.871 21.2152 107.88 20.2348 105.899 20.2348C103.918 20.2348 102.981 21.2526 102.821 23.285M105.62 17.3071C109.923 17.3071 112.074 19.5029 112.074 23.8978C112.074 24.4833 112.033 25.0688 111.955 25.6543H102.542C102.542 27.6526 104.009 28.6501 106.944 28.6501C108.377 28.6501 109.807 28.5139 111.237 28.245V31.0807C109.984 31.3497 108.462 31.4858 106.672 31.4858C101.531 31.4858 98.9609 29.0688 98.9609 24.2314C98.9609 19.3939 101.181 17.3037 105.62 17.3037" fill="#113F7B"/>
<path d="M76.8153 6.2434C77.0978 4.71829 76.7234 3.08765 75.6544 1.85531C73.8264 -0.255326 70.6604 -0.411923 68.5872 1.51148C68.5566 1.53872 68.5259 1.56935 68.4987 1.59659C66.657 -0.296178 63.7021 -0.439156 61.7174 1.33106C60.3455 2.55659 59.7804 4.38808 60.0663 6.11404C57.7685 6.50552 55.9608 8.35404 55.811 10.686C55.6476 13.2051 58.674 15.6528 61.1932 16.143L61.0876 13.903C59.8349 13.4298 58.5004 12.2213 58.5889 10.863C58.674 9.54893 59.6136 8.49021 60.8561 8.13957C61.2034 8.04084 61.5744 8.0034 61.9557 8.02723C62.0851 8.03404 62.2144 8.05106 62.3438 8.07489L62.7455 6.94467C62.6604 6.73021 62.6025 6.50212 62.5685 6.27063C62.5412 6.06638 62.5344 5.86212 62.5481 5.64765C62.657 3.96935 64.0834 2.69276 65.7378 2.79829C66.3234 2.83574 66.8544 3.03999 67.297 3.3634C67.4025 3.4417 67.5012 3.5268 67.5966 3.61531C67.6408 3.65616 67.6817 3.70042 67.7259 3.74467C67.9029 3.93531 68.0561 4.14978 68.1821 4.38127C68.1957 4.4051 68.2093 4.43233 68.2229 4.45957C68.24 4.49361 68.2536 4.52425 68.2706 4.55829L68.6417 4.60935C68.6553 4.57872 68.6723 4.54808 68.6893 4.52084C68.7029 4.49361 68.72 4.46297 68.737 4.43574C68.9685 4.03744 69.2885 3.69701 69.6663 3.44169C70.2076 3.07063 70.8715 2.87318 71.5727 2.92084C73.2612 3.02978 74.5412 4.49701 74.4323 6.19914C74.4323 6.23318 74.4255 6.26382 74.4221 6.29787C74.3881 6.63489 74.3029 6.95829 74.1702 7.25446L74.5787 8.2451C74.8034 8.21446 75.0383 8.20425 75.2766 8.22127C75.5081 8.23489 75.7293 8.27233 75.9404 8.33021C77.3634 8.70467 78.371 9.96425 78.2791 11.3804C78.2008 12.6196 77.3055 13.6306 76.1072 13.9915L76.0663 16.0136C78.337 15.5983 80.8289 13.7634 80.9787 11.4553C81.1387 8.94297 79.3276 6.74382 76.8187 6.2434" fill="#8CC640"/>
<path d="M73.3773 28.5655V31.4012C71.716 31.2412 69.7416 31.9221 68.2539 30.9723C66.7696 30.0225 66.6062 28.3919 66.6471 26.8191C66.7458 23.0948 66.6437 19.34 66.6267 15.6157C66.6199 14.38 66.6369 11.7519 66.6267 10.5195C67.4777 11.4897 68.8258 13.9749 69.3262 15.1527C69.5577 15.694 69.636 16.3578 69.7552 16.9604L74.1773 15.5238C74.1773 15.5238 72.3424 19.2923 70.2011 20.7221C70.1943 22.5774 70.1807 24.4327 70.2045 26.2846C70.2352 28.5178 71.5118 28.5417 73.3739 28.5689" fill="#113F7B"/>
</g>
<defs>
<clipPath id="clip0_38055_5939">
<rect width="112.34" height="32" fill="white"/>
</clipPath>
</defs>
</svg>
