<svg width="20" height="20" viewBox="0 0 20 20" fill="none" xmlns="http://www.w3.org/2000/svg">
<g id="link">
<mask id="mask0_34007_7925" style="mask-type:alpha" maskUnits="userSpaceOnUse" x="0" y="0" width="20" height="20">
<rect id="Bounding box" width="20" height="20" fill="#D9D9D9"/>
</mask>
<g mask="url(#mask0_34007_7925)">
<path id="link_2" d="M11.9726 13.3776L9.75153 15.5987C9.01162 16.3386 8.12017 16.7085 7.07719 16.7085C6.03431 16.7086 5.14296 16.3388 4.40315 15.5989C3.66334 14.8591 3.29338 13.9677 3.29328 12.9246C3.29309 11.8814 3.66294 10.9899 4.40285 10.25L6.6239 8.02893L7.50779 8.91281L5.28674 11.1339C4.79186 11.6287 4.54447 12.2256 4.54457 12.9243C4.54457 13.6232 4.79196 14.22 5.28674 14.7148C5.78151 15.2095 6.37833 15.4569 7.07719 15.4569C7.77595 15.457 8.37277 15.2096 8.86764 14.7148L11.0887 12.4937L11.9726 13.3776ZM8.23301 12.6524L7.34913 11.7685L11.7685 7.34907L12.6524 8.23296L8.23301 12.6524ZM13.3777 11.9725L12.4938 11.0886L14.7148 8.86759C15.2097 8.37271 15.4571 7.77589 15.457 7.07713C15.457 6.37828 15.2096 5.78146 14.7148 5.28668C14.22 4.7919 13.6232 4.54451 12.9244 4.54451C12.2256 4.54441 11.6288 4.7918 11.1339 5.28668L8.91287 7.50773L8.02898 6.62385L10.25 4.4028C10.9899 3.66289 11.8814 3.29293 12.9244 3.29293C13.9673 3.29283 14.8586 3.66269 15.5984 4.4025C16.3382 5.14231 16.7082 6.03376 16.7083 7.07684C16.7085 8.12002 16.3386 9.01156 15.5987 9.75147L13.3777 11.9725Z" fill="#6FB60E"/>
</g>
</g>
</svg>
