<svg width="20" height="20" viewBox="0 0 20 20" fill="none" xmlns="http://www.w3.org/2000/svg">
<g clip-path="url(#clip0_28032_7900)">
<path d="M17.4545 0H2.54545C1.87036 0 1.22291 0.268181 0.745546 0.745546C0.268181 1.22291 0 1.87036 0 2.54545V17.4545C0 18.1296 0.268181 18.7771 0.745546 19.2545C1.22291 19.7318 1.87036 20 2.54545 20H9.84864V11.6784H8.18432V8.34973H9.83486V6.84546C9.83486 5.484 10.4834 3.357 13.3375 3.357L15.9087 3.36732V6.21918H14.0415C13.7379 6.21918 13.3059 6.37036 13.3059 7.01882V8.34995H15.9511L15.6475 11.6786H13.1773V20H17.4545C17.7888 20 18.1198 19.9342 18.4286 19.8062C18.7375 19.6783 19.0181 19.4908 19.2545 19.2545C19.4908 19.0181 19.6783 18.7375 19.8062 18.4286C19.9342 18.1198 20 17.7888 20 17.4545V2.54545C20 2.21118 19.9342 1.88018 19.8062 1.57135C19.6783 1.26252 19.4908 0.981914 19.2545 0.745546C19.0181 0.509179 18.7375 0.321682 18.4286 0.193761C18.1198 0.0658401 17.7888 0 17.4545 0Z" fill="#737373"/>
</g>
<defs>
<clipPath id="clip0_28032_7900">
<rect width="20" height="20" fill="white"/>
</clipPath>
</defs>
</svg>
