<svg width="20" height="20" viewBox="0 0 20 20" fill="none" xmlns="http://www.w3.org/2000/svg">
<mask id="mask0_28032_7918" style="mask-type:alpha" maskUnits="userSpaceOnUse" x="0" y="0" width="20" height="20">
<rect width="20" height="20" fill="#D9D9D9"/>
</mask>
<g mask="url(#mask0_28032_7918)">
<path d="M11.9716 13.3777L9.75055 15.5988C9.01064 16.3387 8.1192 16.7086 7.07621 16.7086C6.03333 16.7087 5.14198 16.3389 4.40217 15.5991C3.66236 14.8593 3.29241 13.9678 3.29231 12.9247C3.29211 11.8816 3.66197 10.99 4.40188 10.2501L6.62293 8.02905L7.50681 8.91293L5.28576 11.134C4.79088 11.6289 4.54349 12.2257 4.54359 12.9244C4.54359 13.6233 4.79098 14.2201 5.28576 14.7149C5.78054 15.2097 6.37736 15.4571 7.07621 15.4571C7.77497 15.4572 8.37179 15.2098 8.86667 14.7149L11.0877 12.4938L11.9716 13.3777ZM8.23204 12.6525L7.34815 11.7686L11.7676 7.3492L12.6515 8.23308L8.23204 12.6525ZM13.3767 11.9726L12.4928 11.0888L14.7138 8.86771C15.2087 8.37283 15.4561 7.77601 15.456 7.07725C15.456 6.3784 15.2086 5.78158 14.7138 5.2868C14.2191 4.79202 13.6223 4.54463 12.9234 4.54463C12.2246 4.54454 11.6278 4.79192 11.1329 5.2868L8.91189 7.50785L8.02801 6.62397L10.2491 4.40292C10.989 3.66301 11.8804 3.29305 12.9234 3.29305C13.9663 3.29296 14.8576 3.66281 15.5974 4.40262C16.3372 5.14243 16.7072 6.03388 16.7073 7.07696C16.7075 8.12014 16.3376 9.01168 15.5977 9.75159L13.3767 11.9726Z" fill="#737373"/>
</g>
</svg>
