<svg width="20" height="20" viewBox="0 0 20 20" fill="none" xmlns="http://www.w3.org/2000/svg">
<path d="M19.8234 3.97363L13.7578 10.0002L19.8234 16.0267C19.933 15.7975 19.9996 15.5441 19.9996 15.2736V4.72672C19.9996 4.45613 19.933 4.20281 19.8234 3.97363Z" fill="#737373"/>
<path d="M18.2433 2.96777H1.75895C1.48836 2.96777 1.23504 3.0343 1.00586 3.14395L8.75832 10.8573C9.44379 11.5428 10.5585 11.5428 11.2439 10.8573L18.9964 3.14395C18.7672 3.0343 18.5139 2.96777 18.2433 2.96777Z" fill="#737373"/>
<path d="M0.176172 3.97363C0.0665234 4.20281 0 4.45613 0 4.72672V15.2736C0 15.5442 0.0665234 15.7975 0.176172 16.0267L6.24176 10.0002L0.176172 3.97363Z" fill="#737373"/>
<path d="M12.9308 10.8281L12.0725 11.6864C10.9304 12.8286 9.07188 12.8286 7.92973 11.6864L7.07145 10.8281L1.00586 16.8546C1.23504 16.9643 1.48836 17.0308 1.75895 17.0308H18.2433C18.5139 17.0308 18.7672 16.9643 18.9964 16.8546L12.9308 10.8281Z" fill="#737373"/>
</svg>
