<svg width="351" height="55" viewBox="0 0 351 55" fill="none" xmlns="http://www.w3.org/2000/svg">
<path d="M16.936 36.7055C17 35.6495 17.064 34.5935 17.128 33.5375C17.224 32.4815 17.16 31.4415 16.936 30.4175C16.84 30.4495 16.632 30.5135 16.312 30.6095C15.992 30.6735 15.624 30.7855 15.208 30.9455C14.792 31.0735 14.36 31.2335 13.912 31.4255C13.496 31.5855 13.128 31.7615 12.808 31.9535C12.776 32.1775 12.712 32.6095 12.616 33.2495C12.552 33.8895 12.424 34.5295 12.232 35.1695C12.04 35.8095 11.784 36.3535 11.464 36.8015C11.144 37.2815 10.728 37.4575 10.216 37.3295C9.832 37.2335 9.528 36.9295 9.304 36.4175C9.08 35.9055 8.904 35.3775 8.776 34.8335C8.68 34.2895 8.616 33.8095 8.584 33.3935C8.584 32.9455 8.616 32.7535 8.68 32.8175C7.816 33.1375 6.984 33.4095 6.184 33.6335C5.512 33.8575 4.84 34.0495 4.168 34.2095C3.528 34.3695 3.032 34.4495 2.68 34.4495C1.944 34.4815 1.464 34.3695 1.24 34.1135C1.048 33.8575 0.984 33.5695 1.048 33.2495C1.112 32.9295 1.256 32.6095 1.48 32.2895C1.704 31.9695 1.896 31.7615 2.056 31.6655C2.44 31.3775 2.776 31.1535 3.064 30.9935C3.384 30.8335 3.688 30.6895 3.976 30.5615C4.296 30.4335 4.616 30.3055 4.936 30.1775C5.256 30.0495 5.608 29.8895 5.992 29.6975C6.248 29.5695 6.52 29.4575 6.808 29.3615C7.128 29.2335 7.4 29.1215 7.624 29.0255C7.88 28.8975 8.088 28.7695 8.248 28.6415C8.408 28.5135 8.472 28.3695 8.44 28.2095C8.376 27.9535 8.312 27.5695 8.248 27.0575C8.216 26.5455 8.184 26.0175 8.152 25.4735C8.12 24.8975 8.088 24.3535 8.056 23.8415C8.056 23.3295 8.056 22.9455 8.056 22.6895C7.608 22.7215 7.176 22.8335 6.76 23.0255C6.344 23.2175 5.928 23.4095 5.512 23.6015C5.128 23.7935 4.728 23.9695 4.312 24.1295C3.928 24.2575 3.544 24.2735 3.16 24.1775C2.232 23.9215 1.704 23.5055 1.576 22.9295C1.48 22.3215 1.8 21.7775 2.536 21.2975C3.432 20.7855 4.424 20.2735 5.512 19.7615C6.6 19.2175 7.608 18.7215 8.536 18.2735C8.696 18.2415 8.808 18.0335 8.872 17.6495C8.968 17.2655 9.016 16.8175 9.016 16.3055C9.048 15.7615 9.064 15.2175 9.064 14.6735C9.096 14.0975 9.144 13.6175 9.208 13.2335C9.304 12.7215 9.4 11.9375 9.496 10.8815C9.592 9.79348 9.736 8.68948 9.928 7.56948C10.12 6.44948 10.392 5.44148 10.744 4.54548C11.096 3.64948 11.592 3.12148 12.232 2.96148C12.616 2.86548 12.92 3.07348 13.144 3.58548C13.4 4.06548 13.576 4.73748 13.672 5.60148C13.8 6.43348 13.864 7.37748 13.864 8.43348C13.864 9.48948 13.848 10.5295 13.816 11.5535C13.784 12.5775 13.736 13.5215 13.672 14.3855C13.64 15.2495 13.608 15.9055 13.576 16.3535C13.992 16.3535 14.408 16.3055 14.824 16.2095C15.272 16.1135 15.672 16.0015 16.024 15.8735C16.376 15.7455 16.664 15.6175 16.888 15.4895C17.144 15.3615 17.272 15.2815 17.272 15.2495C17.24 14.9295 17.208 14.5135 17.176 14.0015C17.144 13.4575 17.128 12.9135 17.128 12.3695C17.16 11.7935 17.24 11.2495 17.368 10.7375C17.496 10.2255 17.704 9.84148 17.992 9.58548C18.376 9.26548 18.744 9.13748 19.096 9.20148C19.48 9.26548 19.832 9.44148 20.152 9.72948C20.472 10.0175 20.728 10.3535 20.92 10.7375C21.112 11.1215 21.224 11.4575 21.256 11.7455C21.32 12.1935 21.384 12.6255 21.448 13.0415C21.512 13.4575 21.608 13.8735 21.736 14.2895C22.184 14.3535 22.648 14.3055 23.128 14.1455C23.608 13.9855 24.072 13.8415 24.52 13.7135C24.712 13.6815 24.984 13.6495 25.336 13.6175C25.72 13.5535 26.12 13.5055 26.536 13.4735C26.952 13.4095 27.336 13.3775 27.688 13.3775C28.04 13.3455 28.28 13.3775 28.408 13.4735C28.44 13.9215 28.152 14.3695 27.544 14.8175C26.936 15.2655 26.248 15.6975 25.48 16.1135C24.712 16.5295 23.992 16.9295 23.32 17.3135C22.68 17.6655 22.312 17.9855 22.216 18.2735C22.152 18.4335 22.104 18.7535 22.072 19.2335C22.072 19.7135 22.072 20.2415 22.072 20.8175C22.072 21.3935 22.072 21.9535 22.072 22.4975C22.104 23.0415 22.12 23.4735 22.12 23.7935C22.536 23.7935 23.064 23.7775 23.704 23.7455C24.376 23.7135 24.984 23.7135 25.528 23.7455C26.104 23.7455 26.552 23.7935 26.872 23.8895C27.192 23.9855 27.24 24.1615 27.016 24.4175C26.696 24.8975 26.28 25.3295 25.768 25.7135C25.256 26.0975 24.744 26.4495 24.232 26.7695C23.72 27.0575 23.288 27.3135 22.936 27.5375C22.584 27.7295 22.424 27.8735 22.456 27.9695C22.488 28.6095 22.424 29.4895 22.264 30.6095C22.104 31.7295 21.88 32.8815 21.592 34.0655C21.304 35.2175 20.952 36.3055 20.536 37.3295C20.152 38.3535 19.72 39.1055 19.24 39.5855C18.696 40.0655 18.264 40.2415 17.944 40.1135C17.656 40.0175 17.432 39.7775 17.272 39.3935C17.112 39.0095 17 38.5455 16.936 38.0015C16.904 37.4895 16.904 37.0575 16.936 36.7055ZM16.84 20.3855C16.296 20.3855 15.784 20.4815 15.304 20.6735C14.856 20.8655 14.36 21.0255 13.816 21.1535C13.72 21.1855 13.656 21.4415 13.624 21.9215C13.624 22.3695 13.624 22.9135 13.624 23.5535C13.624 24.1615 13.608 24.7855 13.576 25.4255C13.576 26.0335 13.544 26.5295 13.48 26.9135C13.864 26.8175 14.168 26.7215 14.392 26.6255C14.648 26.4975 14.872 26.3855 15.064 26.2895C15.288 26.1615 15.512 26.0495 15.736 25.9535C15.992 25.8255 16.312 25.7295 16.696 25.6655C16.76 25.6335 16.792 25.4095 16.792 24.9935C16.792 24.5775 16.792 24.0975 16.792 23.5535C16.792 22.9775 16.792 22.4015 16.792 21.8255C16.792 21.2495 16.808 20.7695 16.84 20.3855ZM48.487 29.6495C48.807 29.8735 48.887 30.2575 48.727 30.8015C48.599 31.3135 48.295 31.8735 47.815 32.4815C47.367 33.0895 46.775 33.6815 46.039 34.2575C45.303 34.8015 44.487 35.2335 43.591 35.5535C42.823 35.8415 42.023 36.0975 41.191 36.3215C40.359 36.5135 39.495 36.6255 38.599 36.6575C37.735 36.6895 36.823 36.6095 35.863 36.4175C34.903 36.2255 33.927 35.8575 32.935 35.3135C30.855 34.2255 29.479 32.9295 28.807 31.4255C28.135 29.9215 27.927 28.3695 28.183 26.7695C28.471 25.1695 29.095 23.6335 30.055 22.1615C31.015 20.6575 32.087 19.3935 33.271 18.3695C31.543 17.6015 30.343 16.6415 29.671 15.4895C28.999 14.3055 28.695 13.0735 28.759 11.7935C28.823 10.4815 29.175 9.18548 29.815 7.90548C30.487 6.59348 31.303 5.42548 32.263 4.40148C33.255 3.34548 34.311 2.51348 35.431 1.90548C36.583 1.26548 37.671 0.977479 38.695 1.04148C39.655 1.10548 40.631 1.34548 41.623 1.76148C42.647 2.14548 43.543 2.59348 44.311 3.10548C45.079 3.61748 45.639 4.14548 45.991 4.68948C46.343 5.20148 46.359 5.61748 46.039 5.93748C45.847 6.12948 45.527 6.14548 45.079 5.98548C44.663 5.79348 44.119 5.56948 43.447 5.31348C42.775 5.05748 41.975 4.81748 41.047 4.59348C40.151 4.36948 39.143 4.28948 38.023 4.35348C36.295 4.44948 35.063 5.05748 34.327 6.17748C33.623 7.26548 33.207 8.67348 33.079 10.4015C33.015 11.4575 33.127 12.3535 33.415 13.0895C33.735 13.8255 34.087 14.4175 34.471 14.8655C34.887 15.3135 35.271 15.6335 35.623 15.8255C36.007 15.9855 36.247 16.0335 36.343 15.9695C37.495 15.0095 38.711 14.2255 39.991 13.6175C41.303 13.0095 42.535 12.6415 43.687 12.5135C44.839 12.3535 45.831 12.4655 46.663 12.8495C47.495 13.2015 48.007 13.8895 48.199 14.9135C48.167 15.4575 47.911 15.9535 47.431 16.4015C46.951 16.8495 46.343 17.2495 45.607 17.6015C44.871 17.9535 44.071 18.2735 43.207 18.5615C42.343 18.8495 41.543 19.0895 40.807 19.2815C40.071 19.4735 39.447 19.6335 38.935 19.7615C38.423 19.8575 38.151 19.9215 38.119 19.9535C37.287 20.5615 36.455 21.2495 35.623 22.0175C34.823 22.7855 34.231 23.7615 33.847 24.9455C33.495 26.0335 33.479 27.0095 33.799 27.8735C34.151 28.7375 34.727 29.4415 35.527 29.9855C36.359 30.4975 37.367 30.8495 38.551 31.0415C39.735 31.2015 41.015 31.1375 42.391 30.8495C42.871 30.7855 43.399 30.6415 43.975 30.4175C44.551 30.1935 45.127 30.0015 45.703 29.8415C46.279 29.6495 46.807 29.5215 47.287 29.4575C47.799 29.3615 48.199 29.4255 48.487 29.6495ZM44.695 15.1055C43.959 14.6575 43.223 14.6415 42.487 15.0575C41.751 15.4735 40.935 16.0975 40.039 16.9295C40.455 16.8975 40.967 16.8175 41.575 16.6895C42.183 16.5295 42.743 16.3535 43.255 16.1615C43.799 15.9695 44.215 15.7775 44.503 15.5855C44.823 15.3615 44.887 15.2015 44.695 15.1055ZM50.683 16.2095C51.387 15.8575 52.107 15.6975 52.843 15.7295C53.611 15.7295 54.283 15.8575 54.859 16.1135C55.467 16.3695 55.947 16.7055 56.299 17.1215C56.651 17.5375 56.795 17.9695 56.731 18.4175C56.475 20.6255 56.459 22.6895 56.683 24.6095C56.939 26.4975 57.275 28.1135 57.691 29.4575C58.107 30.7695 58.539 31.7295 58.987 32.3375C59.435 32.9455 59.771 33.0575 59.995 32.6735C60.219 32.2895 60.427 31.5055 60.619 30.3215C60.811 29.1055 61.083 27.7775 61.435 26.3375C61.819 24.8655 62.347 23.4255 63.019 22.0175C63.723 20.6095 64.683 19.5055 65.899 18.7055C66.955 18.0335 67.659 17.8095 68.011 18.0335C68.395 18.2575 68.555 18.7695 68.491 19.5695C68.427 20.3695 68.219 21.3775 67.867 22.5935C67.547 23.7775 67.211 24.9935 66.859 26.2415C66.635 27.0735 66.315 28.0495 65.899 29.1695C65.483 30.2575 65.003 31.3295 64.459 32.3855C63.947 33.4095 63.371 34.3215 62.731 35.1215C62.123 35.8895 61.515 36.3375 60.907 36.4655C59.755 36.7215 58.747 36.7055 57.883 36.4175C57.051 36.1615 56.315 35.7615 55.675 35.2175C55.035 34.6735 54.459 34.0495 53.947 33.3455C53.467 32.6415 53.019 31.9535 52.603 31.2815C52.315 30.8655 51.995 30.2415 51.643 29.4095C51.323 28.5455 51.003 27.6015 50.683 26.5775C50.395 25.5215 50.139 24.4335 49.915 23.3135C49.691 22.1935 49.547 21.1535 49.483 20.1935C49.451 19.2015 49.515 18.3535 49.675 17.6495C49.867 16.9135 50.203 16.4335 50.683 16.2095ZM70.5936 18.0815C71.0416 17.2175 71.6336 16.4655 72.3696 15.8255C73.1056 15.1855 73.9056 14.6735 74.7696 14.2895C75.6656 13.8735 76.5936 13.5695 77.5536 13.3775C78.5456 13.1855 79.5056 13.0895 80.4336 13.0895C81.3936 13.1535 82.2096 13.4735 82.8816 14.0495C83.5856 14.5935 84.0816 15.3135 84.3696 16.2095C84.6576 17.0735 84.7056 18.0495 84.5136 19.1375C84.3536 20.2255 83.8896 21.3295 83.1216 22.4495C82.2896 23.6655 81.3936 24.5775 80.4336 25.1855C79.5056 25.7935 78.6416 26.2255 77.8416 26.4815C76.9136 26.8015 76.0016 26.9455 75.1056 26.9135C75.0736 28.1295 75.2016 29.1695 75.4896 30.0335C75.6176 30.4175 75.7616 30.7855 75.9216 31.1375C76.1136 31.4575 76.3536 31.7455 76.6416 32.0015C76.9296 32.2575 77.2816 32.4495 77.6976 32.5775C78.1136 32.6735 78.5936 32.6735 79.1376 32.5775C80.2896 32.3855 81.2176 31.9695 81.9216 31.3295C82.6576 30.6575 83.2656 29.9855 83.7456 29.3135C84.2256 28.6415 84.6096 28.0655 84.8976 27.5855C85.2176 27.0735 85.5216 26.8815 85.8096 27.0095C86.1616 27.1695 86.3376 27.5695 86.3376 28.2095C86.3696 28.8495 86.2256 29.6015 85.9056 30.4655C85.5856 31.3295 85.1056 32.2255 84.4656 33.1535C83.8576 34.0495 83.0736 34.8175 82.1136 35.4575C81.1536 36.0975 80.0496 36.5295 78.8016 36.7535C77.5536 37.0095 76.1616 36.8975 74.6256 36.4175C73.3776 36.0335 72.3376 35.4255 71.5056 34.5935C70.6736 33.7615 70.0176 32.8015 69.5376 31.7135C69.0576 30.6255 68.7376 29.4575 68.5776 28.2095C68.4176 26.9615 68.3856 25.7295 68.4816 24.5135C68.6096 23.2655 68.8496 22.0815 69.2016 20.9615C69.5856 19.8415 70.0496 18.8815 70.5936 18.0815ZM75.0576 23.3135C75.4736 23.2495 75.9376 23.1215 76.4496 22.9295C76.8976 22.7695 77.3776 22.5295 77.8896 22.2095C78.4336 21.8895 79.0096 21.4415 79.6176 20.8655C80.1936 20.3215 80.5776 19.7935 80.7696 19.2815C80.9936 18.7695 81.1216 18.3375 81.1536 17.9855C81.1856 17.5695 81.1216 17.1855 80.9616 16.8335C80.5136 16.7055 80.0336 16.7055 79.5216 16.8335C79.0736 16.9615 78.5776 17.2175 78.0336 17.6015C77.4896 17.9855 76.9296 18.5935 76.3536 19.4255C75.9056 20.0655 75.5856 20.6415 75.3936 21.1535C75.2016 21.6335 75.0736 22.0335 75.0096 22.3535C74.9456 22.7375 74.9616 23.0575 75.0576 23.3135ZM87.7885 17.6495C87.4365 17.4575 87.1165 17.3455 86.8285 17.3135C86.5405 17.2815 86.2845 17.2655 86.0605 17.2655C85.8045 17.2655 85.5965 17.2495 85.4365 17.2175C85.2445 17.1535 85.0845 16.9935 84.9565 16.7375C84.8605 16.5135 85.0205 16.2095 85.4365 15.8255C85.8205 15.4415 86.3485 15.1215 87.0205 14.8655C87.6925 14.6095 88.4445 14.5135 89.2765 14.5775C90.1085 14.6095 90.9085 14.9295 91.6765 15.5375C92.3485 16.1135 92.8925 16.6735 93.3085 17.2175C93.7565 17.7295 94.1085 18.1935 94.3645 18.6095C94.6525 19.0895 94.8605 19.5535 94.9885 20.0015C95.8845 19.1375 96.8125 18.4175 97.7725 17.8415C98.6045 17.3295 99.5325 16.9135 100.557 16.5935C101.581 16.2735 102.605 16.2575 103.629 16.5455C103.885 16.6415 103.997 16.8495 103.965 17.1695C103.965 17.4575 103.837 17.7775 103.581 18.1295C103.357 18.4815 103.037 18.8175 102.621 19.1375C102.205 19.4575 101.709 19.6815 101.133 19.8095C100.013 20.0655 99.1165 20.5455 98.4445 21.2495C97.8045 21.9535 97.3085 22.7855 96.9565 23.7455C96.6045 24.6735 96.3805 25.6815 96.2845 26.7695C96.1885 27.8255 96.1405 28.8495 96.1405 29.8415C96.1725 31.9215 95.8845 33.4735 95.2765 34.4975C94.6685 35.4895 93.8525 36.0175 92.8285 36.0815C91.6445 36.1455 90.7645 35.6015 90.1885 34.4495C89.6125 33.2975 89.3245 31.3455 89.3245 28.5935C89.3565 26.8655 89.3725 25.3615 89.3725 24.0815C89.3725 22.8015 89.3245 21.7295 89.2285 20.8655C89.1325 19.9695 88.9725 19.2655 88.7485 18.7535C88.5245 18.2415 88.2045 17.8735 87.7885 17.6495ZM105.92 16.9775C106.56 17.0415 107.008 17.2975 107.264 17.7455C107.552 18.1935 107.744 18.7375 107.84 19.3775C107.936 19.9855 107.968 20.6415 107.936 21.3455C107.904 22.0495 107.888 22.7055 107.888 23.3135C107.92 23.9215 108 24.4335 108.128 24.8495C108.288 25.2655 108.592 25.4895 109.04 25.5215C109.424 25.5855 109.792 25.4255 110.144 25.0415C110.528 24.6575 110.896 24.1615 111.248 23.5535C111.632 22.9135 112.016 22.2095 112.4 21.4415C112.816 20.6735 113.264 19.9215 113.744 19.1855C114.096 18.6415 114.48 18.2415 114.896 17.9855C115.312 17.7295 115.696 17.5535 116.048 17.4575C116.464 17.3295 116.88 17.2975 117.296 17.3615C117.968 17.3295 118.64 17.8255 119.312 18.8495C119.6 19.2975 119.904 19.8735 120.224 20.5775C120.544 21.2495 120.864 22.1135 121.184 23.1695C121.504 24.1935 121.824 25.4255 122.144 26.8655C122.464 28.2735 122.768 29.9375 123.056 31.8575C123.472 34.5775 123.552 37.0735 123.296 39.3455C123.072 41.6175 122.608 43.6335 121.904 45.3935C121.232 47.1855 120.352 48.7215 119.264 50.0015C118.208 51.2815 117.056 52.2895 115.808 53.0255C114.56 53.7935 113.264 54.2735 111.92 54.4655C110.576 54.6895 109.264 54.6255 107.984 54.2735C106.768 53.9215 105.68 53.2335 104.72 52.2095C103.792 51.2175 103.088 50.0495 102.608 48.7055C102.128 47.3615 101.968 45.9215 102.128 44.3855C102.256 42.8815 102.832 41.4575 103.856 40.1135C104.848 38.7695 106.032 37.6975 107.408 36.8975C108.784 36.1295 110.096 35.5855 111.344 35.2655C112.624 34.9135 113.696 34.7535 114.56 34.7855C115.424 34.8175 115.84 34.9455 115.808 35.1695C115.808 35.4255 115.568 35.6975 115.088 35.9855C114.64 36.2735 114.048 36.6415 113.312 37.0895C112.608 37.5695 111.792 38.1615 110.864 38.8655C109.968 39.6015 109.072 40.5295 108.176 41.6495C107.28 42.7695 106.848 43.8095 106.88 44.7695C106.912 45.7295 107.264 46.4335 107.936 46.8815C108.64 47.3615 109.616 47.4895 110.864 47.2655C112.112 47.0415 113.504 46.2895 115.04 45.0095C115.808 44.3695 116.416 43.5855 116.864 42.6575C117.312 41.7295 117.632 40.7055 117.824 39.5855C118.016 38.4975 118.096 37.3615 118.064 36.1775C118.064 34.9935 118 33.8255 117.872 32.6735C117.552 29.9855 116.944 27.1695 116.048 24.2255C115.536 25.1855 114.96 26.0495 114.32 26.8175C113.776 27.4575 113.104 28.0495 112.304 28.5935C111.536 29.1055 110.672 29.3615 109.712 29.3615C108.272 29.3615 107.12 29.0575 106.256 28.4495C105.392 27.8095 104.752 27.0255 104.336 26.0975C103.952 25.1695 103.744 24.1615 103.712 23.0735C103.712 21.9855 103.808 20.9935 104 20.0975C104.192 19.1695 104.464 18.4175 104.816 17.8415C105.2 17.2335 105.568 16.9455 105.92 16.9775ZM135.632 16.9295C137.104 17.8255 138.24 18.9295 139.04 20.2415C139.84 21.5215 140.352 22.8815 140.576 24.3215C140.832 25.7295 140.8 27.1375 140.48 28.5455C140.16 29.9535 139.616 31.2335 138.848 32.3855C138.112 33.5055 137.168 34.4335 136.016 35.1695C134.864 35.9055 133.552 36.2895 132.08 36.3215C130.224 36.3535 128.656 35.9535 127.376 35.1215C126.128 34.2575 125.168 33.1695 124.496 31.8575C123.824 30.5455 123.44 29.1215 123.344 27.5855C123.216 26.0175 123.376 24.5615 123.824 23.2175C124.272 21.8415 125.008 20.6735 126.032 19.7135C127.056 18.7535 128.336 18.2255 129.872 18.1295C131.28 18.0335 132.304 17.8895 132.944 17.6975C133.584 17.4735 134.048 17.2815 134.336 17.1215C134.624 16.9295 134.816 16.8015 134.912 16.7375C135.04 16.6735 135.28 16.7375 135.632 16.9295ZM130.016 21.1055C129.824 21.2975 129.664 21.7615 129.536 22.4975C129.408 23.2335 129.312 24.0975 129.248 25.0895C129.216 26.0815 129.232 27.1215 129.296 28.2095C129.36 29.2975 129.472 30.2895 129.632 31.1855C129.824 32.0815 130.08 32.8175 130.4 33.3935C130.72 33.9695 131.104 34.2255 131.552 34.1615C132 34.0975 132.432 33.8095 132.848 33.2975C133.264 32.7535 133.632 32.0975 133.952 31.3295C134.304 30.5295 134.576 29.6655 134.768 28.7375C134.992 27.7775 135.12 26.8495 135.152 25.9535C135.216 25.0575 135.168 24.2415 135.008 23.5055C134.848 22.7695 134.576 22.2095 134.192 21.8255C133.296 20.8975 132.528 20.4015 131.888 20.3375C131.28 20.2415 130.656 20.4975 130.016 21.1055ZM142.871 18.8975C143.063 18.5775 143.335 18.2895 143.687 18.0335C144.071 17.7455 144.455 17.5055 144.839 17.3135C145.255 17.0895 145.655 16.9295 146.039 16.8335C146.455 16.7055 146.791 16.6415 147.047 16.6415C147.175 16.6415 147.271 16.7695 147.335 17.0255C147.431 17.2815 147.511 17.6175 147.575 18.0335C147.671 18.4495 147.735 18.9295 147.767 19.4735C147.799 19.9855 147.831 20.5135 147.863 21.0575C147.927 22.3375 147.943 23.7935 147.911 25.4255C148.327 24.5935 148.775 23.7775 149.255 22.9775C149.671 22.3055 150.151 21.6175 150.695 20.9135C151.239 20.1775 151.799 19.5535 152.375 19.0415C152.919 18.5615 153.511 18.1935 154.151 17.9375C154.823 17.6815 155.495 17.5855 156.167 17.6495C156.839 17.6815 157.479 17.9215 158.087 18.3695C158.727 18.8175 159.287 19.4895 159.767 20.3855C160.087 20.9935 160.327 21.7615 160.487 22.6895C160.647 23.5855 160.759 24.5455 160.823 25.5695C160.919 26.5615 160.999 27.5695 161.063 28.5935C161.159 29.6175 161.303 30.5615 161.495 31.4255C161.719 32.2895 162.007 33.0255 162.359 33.6335C162.743 34.2415 163.287 34.6255 163.991 34.7855C164.567 34.9455 165.127 34.9615 165.671 34.8335C166.247 34.6735 166.775 34.4815 167.255 34.2575C167.767 34.0015 168.199 33.7935 168.551 33.6335C168.935 33.4415 169.207 33.3935 169.367 33.4895C169.495 33.6175 169.415 33.9695 169.127 34.5455C168.871 35.1215 168.423 35.7135 167.783 36.3215C167.175 36.9295 166.391 37.4415 165.431 37.8575C164.503 38.3055 163.431 38.4495 162.215 38.2895C159.815 37.9695 158.087 36.7375 157.031 34.5935C155.975 32.4175 155.367 29.5855 155.207 26.0975C155.143 24.8495 154.983 23.9215 154.727 23.3135C154.503 22.7055 154.199 22.3855 153.815 22.3535C153.431 22.3215 152.983 22.5455 152.471 23.0255C151.991 23.4735 151.463 24.1295 150.887 24.9935C150.215 25.9855 149.719 26.9775 149.399 27.9695C149.079 28.9615 148.855 29.8895 148.727 30.7535C148.631 31.6175 148.567 32.3855 148.535 33.0575C148.503 33.7295 148.423 34.2255 148.295 34.5455C148.135 34.8975 147.799 35.1375 147.287 35.2655C146.775 35.3935 146.215 35.4575 145.607 35.4575C145.031 35.4575 144.455 35.3935 143.879 35.2655C143.335 35.1375 142.951 34.9775 142.727 34.7855C142.599 34.6575 142.487 34.2095 142.391 33.4415C142.327 32.6415 142.279 31.6975 142.247 30.6095C142.215 29.4895 142.199 28.3055 142.199 27.0575C142.231 25.7775 142.263 24.5775 142.295 23.4575C142.359 22.3055 142.439 21.3135 142.535 20.4815C142.631 19.6495 142.743 19.1215 142.871 18.8975ZM166.247 18.0815C166.695 17.2175 167.287 16.4655 168.023 15.8255C168.759 15.1855 169.559 14.6735 170.423 14.2895C171.319 13.8735 172.247 13.5695 173.207 13.3775C174.199 13.1855 175.159 13.0895 176.087 13.0895C177.047 13.1535 177.863 13.4735 178.535 14.0495C179.239 14.5935 179.735 15.3135 180.023 16.2095C180.311 17.0735 180.359 18.0495 180.167 19.1375C180.007 20.2255 179.543 21.3295 178.775 22.4495C177.943 23.6655 177.047 24.5775 176.087 25.1855C175.159 25.7935 174.295 26.2255 173.495 26.4815C172.567 26.8015 171.655 26.9455 170.759 26.9135C170.727 28.1295 170.855 29.1695 171.143 30.0335C171.271 30.4175 171.415 30.7855 171.575 31.1375C171.767 31.4575 172.007 31.7455 172.295 32.0015C172.583 32.2575 172.935 32.4495 173.351 32.5775C173.767 32.6735 174.247 32.6735 174.791 32.5775C175.943 32.3855 176.871 31.9695 177.575 31.3295C178.311 30.6575 178.919 29.9855 179.399 29.3135C179.879 28.6415 180.263 28.0655 180.551 27.5855C180.871 27.0735 181.175 26.8815 181.463 27.0095C181.815 27.1695 181.991 27.5695 181.991 28.2095C182.023 28.8495 181.879 29.6015 181.559 30.4655C181.239 31.3295 180.759 32.2255 180.119 33.1535C179.511 34.0495 178.727 34.8175 177.767 35.4575C176.807 36.0975 175.703 36.5295 174.455 36.7535C173.207 37.0095 171.815 36.8975 170.279 36.4175C169.031 36.0335 167.991 35.4255 167.159 34.5935C166.327 33.7615 165.671 32.8015 165.191 31.7135C164.711 30.6255 164.391 29.4575 164.231 28.2095C164.071 26.9615 164.039 25.7295 164.135 24.5135C164.263 23.2655 164.503 22.0815 164.855 20.9615C165.239 19.8415 165.703 18.8815 166.247 18.0815ZM170.711 23.3135C171.127 23.2495 171.591 23.1215 172.103 22.9295C172.551 22.7695 173.031 22.5295 173.543 22.2095C174.087 21.8895 174.663 21.4415 175.271 20.8655C175.847 20.3215 176.231 19.7935 176.423 19.2815C176.647 18.7695 176.775 18.3375 176.807 17.9855C176.839 17.5695 176.775 17.1855 176.615 16.8335C176.167 16.7055 175.687 16.7055 175.175 16.8335C174.727 16.9615 174.231 17.2175 173.687 17.6015C173.143 17.9855 172.583 18.5935 172.007 19.4255C171.559 20.0655 171.239 20.6415 171.047 21.1535C170.855 21.6335 170.727 22.0335 170.663 22.3535C170.599 22.7375 170.615 23.0575 170.711 23.3135ZM206.17 24.9935C206.266 25.1855 206.266 25.6015 206.17 26.2415C206.106 26.8815 205.994 27.5695 205.834 28.3055C205.706 29.0095 205.562 29.6815 205.402 30.3215C205.242 30.9295 205.114 31.2975 205.018 31.4255C204.378 32.2575 203.658 33.0735 202.858 33.8735C202.058 34.6735 201.146 35.2815 200.122 35.6975C198.426 36.3695 196.746 36.6415 195.082 36.5135C193.45 36.4175 191.914 36.0015 190.474 35.2655C189.066 34.5295 187.786 33.5375 186.634 32.2895C185.482 31.0095 184.554 29.5695 183.85 27.9695C183.178 26.4655 182.73 24.7375 182.506 22.7855C182.314 20.8335 182.346 18.8815 182.602 16.9295C182.89 14.9455 183.402 13.0895 184.138 11.3615C184.906 9.63348 185.946 8.24148 187.258 7.18548C188.634 6.09748 190.026 5.39348 191.434 5.07348C192.842 4.72148 194.202 4.62548 195.514 4.78548C196.826 4.91348 198.042 5.23348 199.162 5.74548C200.282 6.25748 201.226 6.80148 201.994 7.37748C202.218 7.53748 202.602 7.82548 203.146 8.24148C203.722 8.65748 204.186 9.10548 204.538 9.58548C204.922 10.0335 205.066 10.4335 204.97 10.7855C204.906 11.1375 204.362 11.3295 203.338 11.3615C202.634 11.3935 201.962 11.3455 201.322 11.2175C200.682 11.0895 200.042 10.9455 199.402 10.7855C198.762 10.5935 198.122 10.4335 197.482 10.3055C196.842 10.1455 196.17 10.0655 195.466 10.0655C191.786 10.0655 189.514 12.5775 188.65 17.6015C188.522 18.3695 188.394 19.2655 188.266 20.2895C188.17 21.2815 188.106 22.3375 188.074 23.4575C188.074 24.5455 188.138 25.6175 188.266 26.6735C188.394 27.7295 188.618 28.6895 188.938 29.5535C189.29 30.4175 189.754 31.1215 190.33 31.6655C190.938 32.2095 191.722 32.5135 192.682 32.5775C193.546 32.6415 194.378 32.5455 195.178 32.2895C196.01 32.0015 196.794 31.6335 197.53 31.1855C198.298 30.7055 199.018 30.1935 199.69 29.6495C200.394 29.1055 201.05 28.5615 201.658 28.0175C201.754 27.9215 201.994 27.6335 202.378 27.1535C202.794 26.6415 203.258 26.1615 203.77 25.7135C204.282 25.2655 204.762 24.9295 205.21 24.7055C205.658 24.4815 205.978 24.5775 206.17 24.9935C206.266 25.1855 206.314 25.2975 206.314 25.3295C206.314 25.3295 206.298 25.3135 206.266 25.2815C206.266 25.2175 206.25 25.1535 206.218 25.0895C206.186 25.0255 206.17 24.9935 206.17 24.9935ZM220.108 16.1135C220.012 16.5295 219.74 16.8815 219.292 17.1695C218.844 17.4255 218.332 17.6975 217.756 17.9855C217.18 18.2735 216.588 18.5935 215.98 18.9455C215.372 19.2975 214.86 19.7615 214.444 20.3375C213.804 21.2655 213.356 22.3695 213.1 23.6495C212.844 24.9295 212.716 26.1615 212.716 27.3455C212.748 28.4975 212.892 29.5055 213.148 30.3695C213.436 31.2015 213.788 31.6175 214.204 31.6175C214.716 31.6175 215.244 31.3775 215.788 30.8975C216.364 30.4175 216.876 29.8735 217.324 29.2655C217.772 28.6255 218.14 27.9855 218.428 27.3455C218.716 26.6735 218.86 26.1615 218.86 25.8095C218.86 25.4575 218.844 24.9775 218.812 24.3695C218.78 23.7295 218.78 23.1055 218.812 22.4975C218.876 21.8895 218.972 21.3615 219.1 20.9135C219.26 20.4655 219.516 20.2255 219.868 20.1935C220.22 20.1615 220.636 20.0815 221.116 19.9535C221.628 19.8255 222.108 19.8095 222.556 19.9055C223.004 20.0015 223.356 20.3215 223.612 20.8655C223.9 21.3775 224.012 22.2735 223.948 23.5535C223.852 26.1455 223.98 28.1135 224.332 29.4575C224.684 30.7695 225.372 31.5375 226.396 31.7615C227.1 31.8895 227.724 31.7295 228.268 31.2815C228.844 30.8015 229.356 30.2735 229.804 29.6975C230.252 29.1215 230.636 28.6095 230.956 28.1615C231.276 27.6815 231.532 27.4895 231.724 27.5855C231.948 27.6815 232.028 28.0815 231.964 28.7855C231.9 29.4895 231.66 30.2895 231.244 31.1855C230.828 32.0495 230.204 32.9295 229.372 33.8255C228.572 34.6895 227.532 35.3615 226.252 35.8415C225.58 36.0975 224.956 36.2255 224.38 36.2255C223.804 36.2255 223.276 36.1455 222.796 35.9855C222.348 35.8255 221.948 35.6015 221.596 35.3135C221.244 35.0255 220.924 34.7055 220.636 34.3535C219.996 33.5535 219.484 32.5615 219.1 31.3775C218.78 32.1455 218.332 32.8175 217.756 33.3935C217.276 33.9055 216.652 34.3855 215.884 34.8335C215.116 35.2495 214.172 35.4895 213.052 35.5535C211.932 35.5855 210.876 35.2335 209.884 34.4975C208.892 33.7615 208.092 32.7695 207.484 31.5215C206.908 30.2735 206.588 28.8335 206.524 27.2015C206.492 25.5375 206.86 23.7935 207.628 21.9695C208.14 20.7855 208.812 19.7775 209.644 18.9455C210.476 18.1135 211.356 17.4415 212.284 16.9295C213.244 16.3855 214.188 16.0015 215.116 15.7775C216.076 15.5215 216.924 15.3775 217.66 15.3455C218.428 15.3135 219.036 15.3775 219.484 15.5375C219.964 15.6655 220.172 15.8575 220.108 16.1135ZM229.218 18.8975C229.41 18.5775 229.682 18.2895 230.034 18.0335C230.418 17.7455 230.802 17.5055 231.186 17.3135C231.602 17.0895 232.002 16.9295 232.386 16.8335C232.802 16.7055 233.138 16.6415 233.394 16.6415C233.522 16.6415 233.618 16.7695 233.682 17.0255C233.778 17.2815 233.858 17.6175 233.922 18.0335C234.018 18.4495 234.082 18.9295 234.114 19.4735C234.146 19.9855 234.178 20.5135 234.21 21.0575C234.274 22.3375 234.29 23.7935 234.258 25.4255C234.674 24.5935 235.122 23.7775 235.602 22.9775C236.018 22.3055 236.498 21.6175 237.042 20.9135C237.586 20.1775 238.146 19.5535 238.722 19.0415C239.266 18.5615 239.858 18.1935 240.498 17.9375C241.17 17.6815 241.842 17.5855 242.514 17.6495C243.186 17.6815 243.826 17.9215 244.434 18.3695C245.074 18.8175 245.634 19.4895 246.114 20.3855C246.434 20.9935 246.674 21.7615 246.834 22.6895C246.994 23.5855 247.106 24.5455 247.17 25.5695C247.266 26.5615 247.346 27.5695 247.41 28.5935C247.506 29.6175 247.65 30.5615 247.842 31.4255C248.066 32.2895 248.354 33.0255 248.706 33.6335C249.09 34.2415 249.634 34.6255 250.338 34.7855C250.914 34.9455 251.474 34.9615 252.018 34.8335C252.594 34.6735 253.122 34.4815 253.602 34.2575C254.114 34.0015 254.546 33.7935 254.898 33.6335C255.282 33.4415 255.554 33.3935 255.714 33.4895C255.842 33.6175 255.762 33.9695 255.474 34.5455C255.218 35.1215 254.77 35.7135 254.13 36.3215C253.522 36.9295 252.738 37.4415 251.778 37.8575C250.85 38.3055 249.778 38.4495 248.562 38.2895C246.162 37.9695 244.434 36.7375 243.378 34.5935C242.322 32.4175 241.714 29.5855 241.554 26.0975C241.49 24.8495 241.33 23.9215 241.074 23.3135C240.85 22.7055 240.546 22.3855 240.162 22.3535C239.778 22.3215 239.33 22.5455 238.818 23.0255C238.338 23.4735 237.81 24.1295 237.234 24.9935C236.562 25.9855 236.066 26.9775 235.746 27.9695C235.426 28.9615 235.202 29.8895 235.074 30.7535C234.978 31.6175 234.914 32.3855 234.882 33.0575C234.85 33.7295 234.77 34.2255 234.642 34.5455C234.482 34.8975 234.146 35.1375 233.634 35.2655C233.122 35.3935 232.562 35.4575 231.954 35.4575C231.378 35.4575 230.802 35.3935 230.226 35.2655C229.682 35.1375 229.298 34.9775 229.074 34.7855C228.946 34.6575 228.834 34.2095 228.738 33.4415C228.674 32.6415 228.626 31.6975 228.594 30.6095C228.562 29.4895 228.546 28.3055 228.546 27.0575C228.578 25.7775 228.61 24.5775 228.642 23.4575C228.706 22.3055 228.786 21.3135 228.882 20.4815C228.978 19.6495 229.09 19.1215 229.218 18.8975ZM270.93 45.3455C270.066 46.0175 269.09 46.4975 268.002 46.7855C266.946 47.1055 265.906 47.2175 264.882 47.1215C263.89 47.0255 263.026 46.7215 262.29 46.2095C261.554 45.7295 261.09 45.0255 260.898 44.0975C260.738 43.1375 260.738 42.2095 260.898 41.3135C261.058 40.4495 261.33 39.6175 261.714 38.8175C262.13 38.0175 262.658 37.2335 263.298 36.4655C263.938 35.7295 264.642 34.9935 265.41 34.2575C266.306 33.4255 267.218 32.7055 268.146 32.0975C269.074 31.4575 269.954 30.8655 270.786 30.3215C270.786 29.7775 270.786 29.0255 270.786 28.0655C270.786 27.0735 270.77 26.0175 270.738 24.8975C270.738 23.7455 270.69 22.5775 270.594 21.3935C270.53 20.2095 270.434 19.1215 270.306 18.1295C269.634 20.0175 268.93 21.8735 268.194 23.6975C267.49 25.4895 266.674 27.1375 265.746 28.6415C264.85 30.1455 263.81 31.4575 262.626 32.5775C261.442 33.6975 260.05 34.5135 258.45 35.0255C257.234 35.4095 256.194 35.4415 255.33 35.1215C254.466 34.8015 253.746 34.2415 253.17 33.4415C252.626 32.6415 252.21 31.6815 251.922 30.5615C251.634 29.4095 251.458 28.2095 251.394 26.9615C251.33 25.7135 251.362 24.4815 251.49 23.2655C251.618 22.0175 251.826 20.9135 252.114 19.9535C252.594 18.2895 253.25 16.5615 254.082 14.7695C254.946 12.9455 255.938 11.2495 257.058 9.68148C258.178 8.11348 259.394 6.75348 260.706 5.60148C262.05 4.44948 263.426 3.69748 264.834 3.34548C265.826 3.12148 266.722 3.12148 267.522 3.34548C268.354 3.56948 269.074 3.92148 269.682 4.40148C270.322 4.88148 270.85 5.44148 271.266 6.08148C271.714 6.68948 272.05 7.28148 272.274 7.85748C272.498 8.43348 272.61 8.92948 272.61 9.34548C272.61 9.76148 272.498 9.98548 272.274 10.0175C271.826 10.1135 271.33 9.84148 270.786 9.20148C270.242 8.56148 269.49 7.79348 268.53 6.89748C268.178 6.60948 267.73 6.49748 267.186 6.56148C266.674 6.59348 266.114 6.76948 265.506 7.08948C264.898 7.40948 264.29 7.85748 263.682 8.43348C263.074 9.00948 262.53 9.68148 262.05 10.4495C261.122 11.8255 260.322 13.1855 259.65 14.5295C258.978 15.8415 258.434 17.1855 258.018 18.5615C257.634 19.9055 257.362 21.3295 257.202 22.8335C257.042 24.3055 256.994 25.8735 257.058 27.5375C257.058 29.0415 257.25 30.0495 257.634 30.5615C258.05 31.0735 258.562 31.2335 259.17 31.0415C259.778 30.8175 260.45 30.3215 261.186 29.5535C261.954 28.7855 262.69 27.8735 263.394 26.8175C264.13 25.7295 264.802 24.5775 265.41 23.3615C266.018 22.1135 266.482 20.9455 266.802 19.8575C267.058 18.9935 267.41 18.0815 267.858 17.1215C268.338 16.1615 268.882 15.3615 269.49 14.7215C270.13 14.0495 270.85 13.6335 271.65 13.4735C272.45 13.2815 273.33 13.5215 274.29 14.1935C274.61 14.4175 274.866 14.8815 275.058 15.5855C275.282 16.2895 275.458 17.1215 275.586 18.0815C275.714 19.0095 275.81 20.0175 275.874 21.1055C275.938 22.1615 275.97 23.1855 275.97 24.1775C276.002 25.1695 276.002 26.0655 275.97 26.8655C275.97 27.6655 275.954 28.2575 275.922 28.6415C276.306 28.4175 276.738 28.1455 277.218 27.8255C277.698 27.4735 278.178 27.2015 278.658 27.0095C279.138 26.7855 279.586 26.6575 280.002 26.6255C280.45 26.5935 280.834 26.7535 281.154 27.1055C281.442 27.3935 281.426 27.7455 281.106 28.1615C280.818 28.5775 280.37 29.0255 279.762 29.5055C279.186 29.9855 278.53 30.4975 277.794 31.0415C277.058 31.5535 276.402 32.0495 275.826 32.5295C275.762 32.5935 275.698 33.1055 275.634 34.0655C275.602 35.0255 275.442 36.1775 275.154 37.5215C274.898 38.8655 274.45 40.2575 273.81 41.6975C273.17 43.1375 272.21 44.3535 270.93 45.3455ZM270.882 34.6415C270.082 35.1215 269.33 35.6655 268.626 36.2735C268.018 36.8175 267.41 37.4575 266.802 38.1935C266.226 38.9295 265.794 39.7615 265.506 40.6895C265.314 41.6815 265.314 42.4015 265.506 42.8495C265.698 43.3295 266.002 43.5855 266.418 43.6175C266.866 43.6815 267.362 43.5535 267.906 43.2335C268.482 42.9135 269.026 42.4655 269.538 41.8895C270.114 41.4415 270.498 40.8175 270.69 40.0175C270.914 39.2175 271.042 38.4175 271.074 37.6175C271.106 36.6895 271.042 35.6975 270.882 34.6415ZM278.039 17.6495C277.687 17.4575 277.367 17.3455 277.079 17.3135C276.791 17.2815 276.535 17.2655 276.311 17.2655C276.055 17.2655 275.847 17.2495 275.687 17.2175C275.495 17.1535 275.335 16.9935 275.207 16.7375C275.111 16.5135 275.271 16.2095 275.687 15.8255C276.071 15.4415 276.599 15.1215 277.271 14.8655C277.943 14.6095 278.695 14.5135 279.527 14.5775C280.359 14.6095 281.159 14.9295 281.927 15.5375C282.599 16.1135 283.143 16.6735 283.559 17.2175C284.007 17.7295 284.359 18.1935 284.615 18.6095C284.903 19.0895 285.111 19.5535 285.239 20.0015C286.135 19.1375 287.063 18.4175 288.023 17.8415C288.855 17.3295 289.783 16.9135 290.807 16.5935C291.831 16.2735 292.855 16.2575 293.879 16.5455C294.135 16.6415 294.247 16.8495 294.215 17.1695C294.215 17.4575 294.087 17.7775 293.831 18.1295C293.607 18.4815 293.287 18.8175 292.871 19.1375C292.455 19.4575 291.959 19.6815 291.383 19.8095C290.263 20.0655 289.367 20.5455 288.695 21.2495C288.055 21.9535 287.559 22.7855 287.207 23.7455C286.855 24.6735 286.631 25.6815 286.535 26.7695C286.439 27.8255 286.391 28.8495 286.391 29.8415C286.423 31.9215 286.135 33.4735 285.527 34.4975C284.919 35.4895 284.103 36.0175 283.079 36.0815C281.895 36.1455 281.015 35.6015 280.439 34.4495C279.863 33.2975 279.575 31.3455 279.575 28.5935C279.607 26.8655 279.623 25.3615 279.623 24.0815C279.623 22.8015 279.575 21.7295 279.479 20.8655C279.383 19.9695 279.223 19.2655 278.999 18.7535C278.775 18.2415 278.455 17.8735 278.039 17.6495ZM304.811 16.9295C306.283 17.8255 307.419 18.9295 308.219 20.2415C309.019 21.5215 309.531 22.8815 309.755 24.3215C310.011 25.7295 309.979 27.1375 309.659 28.5455C309.339 29.9535 308.795 31.2335 308.027 32.3855C307.291 33.5055 306.347 34.4335 305.195 35.1695C304.043 35.9055 302.731 36.2895 301.259 36.3215C299.403 36.3535 297.835 35.9535 296.555 35.1215C295.307 34.2575 294.347 33.1695 293.675 31.8575C293.003 30.5455 292.619 29.1215 292.523 27.5855C292.395 26.0175 292.555 24.5615 293.003 23.2175C293.451 21.8415 294.187 20.6735 295.211 19.7135C296.235 18.7535 297.515 18.2255 299.051 18.1295C300.459 18.0335 301.483 17.8895 302.123 17.6975C302.763 17.4735 303.227 17.2815 303.515 17.1215C303.803 16.9295 303.995 16.8015 304.091 16.7375C304.219 16.6735 304.459 16.7375 304.811 16.9295ZM299.195 21.1055C299.003 21.2975 298.843 21.7615 298.715 22.4975C298.587 23.2335 298.491 24.0975 298.427 25.0895C298.395 26.0815 298.411 27.1215 298.475 28.2095C298.539 29.2975 298.651 30.2895 298.811 31.1855C299.003 32.0815 299.259 32.8175 299.579 33.3935C299.899 33.9695 300.283 34.2255 300.731 34.1615C301.179 34.0975 301.611 33.8095 302.027 33.2975C302.443 32.7535 302.811 32.0975 303.131 31.3295C303.483 30.5295 303.755 29.6655 303.947 28.7375C304.171 27.7775 304.299 26.8495 304.331 25.9535C304.395 25.0575 304.347 24.2415 304.187 23.5055C304.027 22.7695 303.755 22.2095 303.371 21.8255C302.475 20.8975 301.707 20.4015 301.067 20.3375C300.459 20.2415 299.835 20.4975 299.195 21.1055ZM312.386 17.0735C313.058 16.7535 313.698 16.5935 314.306 16.5935C314.914 16.5935 315.442 16.7055 315.89 16.9295C316.338 17.1535 316.69 17.4735 316.946 17.8895C317.202 18.2735 317.314 18.6895 317.282 19.1375C317.026 21.2175 317.042 23.1535 317.33 24.9455C317.618 26.7055 318.002 28.2095 318.482 29.4575C318.962 30.6735 319.458 31.5695 319.97 32.1455C320.514 32.7215 320.882 32.8335 321.074 32.4815C321.266 32.1295 321.49 31.3935 321.746 30.2735C322.002 29.1215 322.322 27.8575 322.706 26.4815C323.122 25.1055 323.634 23.7615 324.242 22.4495C324.85 21.1055 325.618 20.0655 326.546 19.3295C327.474 18.5935 328.274 18.1935 328.946 18.1295C329.618 18.0655 330.194 18.2095 330.674 18.5615C331.154 18.9135 331.554 19.4255 331.874 20.0975C332.226 20.7375 332.546 21.3935 332.834 22.0655C333.122 22.7695 333.378 23.6815 333.602 24.8015C333.858 25.8895 334.114 26.9295 334.37 27.9215C334.658 28.9135 334.946 29.7135 335.234 30.3215C335.554 30.8975 335.938 31.0255 336.386 30.7055C336.674 30.4815 336.978 30.0175 337.298 29.3135C337.618 28.6095 337.954 27.7935 338.306 26.8655C338.69 25.9055 339.09 24.9135 339.506 23.8895C339.954 22.8655 340.434 21.9215 340.946 21.0575C341.458 20.1935 342.018 19.4895 342.626 18.9455C343.266 18.4015 343.97 18.1455 344.738 18.1775C345.57 18.2095 346.338 18.4335 347.042 18.8495C347.778 19.2335 348.402 19.6975 348.914 20.2415C349.458 20.7535 349.874 21.2815 350.162 21.8255C350.45 22.3695 350.594 22.8175 350.594 23.1695C350.594 23.5215 350.418 23.7135 350.066 23.7455C349.714 23.7455 349.17 23.4735 348.434 22.9295C347.666 22.3855 346.818 22.5615 345.89 23.4575C344.962 24.3215 344.242 25.8895 343.73 28.1615C343.474 29.2815 343.186 30.2895 342.866 31.1855C342.578 32.0495 342.21 32.8015 341.762 33.4415C341.346 34.0495 340.818 34.5455 340.178 34.9295C339.538 35.3135 338.754 35.5535 337.826 35.6495C336.962 35.7455 336.162 35.5695 335.426 35.1215C334.69 34.6415 334.018 34.0335 333.41 33.2975C332.834 32.5295 332.338 31.6975 331.922 30.8015C331.538 29.9055 331.282 29.0735 331.154 28.3055C330.994 27.5695 330.85 27.0575 330.722 26.7695C330.626 26.4495 330.514 26.3375 330.386 26.4335C330.29 26.5295 330.162 26.8015 330.002 27.2495C329.842 27.6975 329.618 28.2895 329.33 29.0255C329.074 29.7615 328.818 30.4975 328.562 31.2335C328.306 31.9695 327.97 32.6575 327.554 33.2975C327.138 33.9055 326.594 34.4655 325.922 34.9775C325.282 35.4575 324.418 35.8095 323.33 36.0335C322.274 36.2575 321.266 36.2575 320.306 36.0335C319.378 35.7775 318.514 35.3935 317.714 34.8815C316.946 34.3695 316.258 33.7935 315.65 33.1535C315.042 32.4815 314.546 31.8255 314.162 31.1855C313.906 30.7695 313.618 30.1775 313.298 29.4095C312.978 28.6095 312.674 27.7295 312.386 26.7695C312.098 25.7775 311.842 24.7695 311.618 23.7455C311.426 22.6895 311.298 21.7135 311.234 20.8175C311.202 19.8895 311.266 19.0895 311.426 18.4175C311.618 17.7455 311.938 17.2975 312.386 17.0735Z" fill="#6FB60E"/>
</svg>
