<svg width="57" height="56" viewBox="0 0 57 56" fill="none" xmlns="http://www.w3.org/2000/svg">
<path d="M54.0797 36.47C53.5722 35.8172 51.6385 33.859 48.1017 35.98C46.6212 36.8672 45.5555 37.8122 44.6157 38.6435C44.0347 39.1597 43.5325 39.6042 43.0197 39.9595C42.6225 40.236 42.5245 40.7802 42.801 41.1757C43.0757 41.5765 43.6217 41.671 44.0172 41.3962C44.6157 40.9815 45.1775 40.4827 45.7742 39.9542C46.6597 39.172 47.6607 38.2847 49.0012 37.4797C50.4065 36.6362 51.579 36.5487 52.3927 37.2242C53.0595 37.779 53.203 38.619 53.196 38.7205L44.8975 46.6742L33.4945 52.171C32.8067 52.493 31.5607 52.5945 30.845 52.3985L16.7802 48.1425C16.698 48.118 16.6122 48.1057 16.5265 48.1057H15.3242V49.8557H16.397L30.3567 54.0802C30.7662 54.194 31.2457 54.25 31.741 54.25C32.6212 54.25 33.5522 54.0767 34.2435 53.7547L45.783 48.195C45.867 48.1547 45.944 48.1022 46.0087 48.0375L54.4227 39.9752C55.163 39.2315 55.0107 37.66 54.0797 36.47Z" fill="white"/>
<path d="M40.2147 40.1712C39.1664 39.0512 37.4777 38.4999 35.2009 38.4999H30.231C30.0472 38.4999 29.8792 38.0047 29.7427 37.8699C28.6525 36.7972 26.0957 34.9877 21.2534 34.9877C20.4152 34.9877 19.626 35.0384 18.9102 35.1452C18.4325 35.2169 18.1034 35.6614 18.1734 36.1374C18.2452 36.6152 18.6897 36.9389 19.1674 36.8742C19.7974 36.7779 20.4992 36.7307 21.2517 36.7307C25.4709 36.7307 27.5657 38.2829 28.5124 39.1194C28.9989 39.5429 29.2755 40.2499 30.0717 40.2499H35.2027C36.9772 40.2499 38.2337 40.6314 38.9389 41.3839C39.5969 42.0892 39.6862 43.7499 39.6722 43.7499H29.5467C29.0637 43.7499 28.6717 44.1437 28.6717 44.6249C28.6717 45.1079 29.0637 45.4999 29.5467 45.4999H40.5069C40.9882 45.4999 41.3819 45.0939 41.3819 44.6092L41.3942 44.3607C41.4467 43.5417 41.5709 41.6184 40.2147 40.1712Z" fill="white"/>
<path d="M15.543 50.75H9.41797V49H14.668V36.75H9.41797V35H15.543C16.026 35 16.418 35.3623 16.418 35.8435V49.8435C16.418 50.33 16.026 50.75 15.543 50.75Z" fill="white"/>
<path d="M3.29297 54.25C2.80997 54.25 2.41797 53.858 2.41797 53.375C2.41797 52.892 2.80997 52.5 3.29297 52.5H9.41797V36.75H3.29297C2.80997 36.75 2.41797 36.358 2.41797 35.875C2.41797 35.392 2.80997 35 3.29297 35H10.293C10.776 35 11.168 35.3623 11.168 35.8435V53.3435C11.168 53.83 10.776 54.25 10.293 54.25H3.29297Z" fill="white"/>
<path d="M39.4993 34.8144C37.7896 34.8144 36.4578 34.4364 36.3773 34.4137C36.0746 34.3244 35.8401 34.0812 35.7683 33.7714C35.7176 33.5527 34.5678 28.3779 39.0933 25.3207C39.4923 25.0477 40.0383 25.1562 40.3078 25.5552C40.5773 25.9559 40.4723 26.5002 40.0716 26.7697C37.2786 28.6562 37.2681 31.6539 37.3923 32.8544C38.2253 33.0189 39.9088 33.2412 41.5136 32.8247C43.6661 32.2629 45.1151 31.0379 45.9411 29.0849C46.3926 28.0157 47.2361 27.0794 48.2581 26.4424C46.9648 25.9542 45.1238 25.4502 43.2548 25.6392C42.7893 25.6689 42.3466 25.3329 42.3011 24.8517C42.2538 24.3722 42.6073 23.9434 43.0886 23.8962C47.0803 23.5234 50.7693 25.6584 50.9251 25.7494C51.2418 25.9349 51.4081 26.2989 51.3416 26.6612C51.2751 27.0234 50.9898 27.3034 50.6293 27.3664C49.3221 27.5904 48.0568 28.5757 47.5546 29.7657C46.5168 32.2192 44.6338 33.8169 41.9581 34.5169C41.1163 34.7374 40.2693 34.8144 39.4993 34.8144Z" fill="white"/>
<path d="M26.4675 31.3144C25.6975 31.3144 24.8487 31.2374 24.0035 31.0169C21.3277 30.3187 19.4447 28.7192 18.407 26.2657C17.9047 25.0757 16.6395 24.0904 15.3322 23.8664C14.97 23.8034 14.6847 23.5234 14.62 23.1612C14.5535 22.8007 14.7197 22.4367 15.0365 22.2494C15.0855 22.2197 16.2492 21.5407 17.9572 21.0017C18.4192 20.8599 18.9092 21.1119 19.0545 21.5722C19.1997 22.0342 18.9442 22.5242 18.4822 22.6694C18.204 22.7587 17.9415 22.8514 17.6982 22.9407C18.722 23.5777 19.5655 24.5139 20.017 25.5849C20.843 27.5379 22.292 28.7612 24.4445 29.3247C26.0597 29.7429 27.738 29.5207 28.5675 29.3562C28.7057 28.0979 28.697 24.8954 25.4787 23.0142C24.4865 22.4332 23.3315 22.1269 22.0487 22.1024C21.5657 22.0937 21.1807 21.6947 21.1895 21.2099C21.1982 20.7287 21.6095 20.3524 22.0802 20.3524C23.6657 20.3822 25.106 20.7689 26.3607 21.5022C30.4487 23.8927 30.6535 28.2852 30.1897 30.2732C30.118 30.5829 29.8852 30.8262 29.5807 30.9154C29.5055 30.9382 28.1755 31.3144 26.4675 31.3144Z" fill="white"/>
<path d="M33.015 19.2499C32.7245 19.2499 32.4497 19.1957 32.168 19.1642V39.3522L33.918 39.3539V19.1589C33.6187 19.1939 33.3247 19.2499 33.015 19.2499Z" fill="white"/>
<path d="M33.0117 20.125C28.187 20.125 24.2617 16.1997 24.2617 11.375C24.2617 6.55025 28.187 2.625 33.0117 2.625C37.8365 2.625 41.7617 6.55025 41.7617 11.375C41.7617 16.1997 37.8365 20.125 33.0117 20.125ZM33.0117 4.375C29.153 4.375 26.0117 7.51625 26.0117 11.375C26.0117 15.2337 29.153 18.375 33.0117 18.375C36.8705 18.375 40.0117 15.2337 40.0117 11.375C40.0117 7.51625 36.8705 4.375 33.0117 4.375Z" fill="white"/>
<path d="M32.8513 34.1792C32.6466 34.1792 32.4418 34.1074 32.2756 33.9622L28.7756 30.8997C28.4116 30.5812 28.3748 30.0299 28.6933 29.6659C29.0118 29.2984 29.5648 29.2652 29.9288 29.5837L33.4288 32.6462C33.7928 32.9647 33.8296 33.5159 33.5111 33.8799C33.3361 34.0794 33.0946 34.1792 32.8513 34.1792Z" fill="white"/>
<path d="M33.1524 37.4063C32.9057 37.4063 32.6589 37.3013 32.4857 37.0983C32.1724 36.7291 32.2179 36.1778 32.5854 35.8646L36.0609 32.9088C36.4266 32.5956 36.9796 32.6393 37.2946 33.0086C37.6079 33.3778 37.5624 33.9291 37.1949 34.2423L33.7194 37.1981C33.5549 37.3381 33.3519 37.4063 33.1524 37.4063Z" fill="white"/>
<path d="M43.6535 7.00018C43.3525 7.00018 43.0568 6.84268 42.8958 6.56268C42.6525 6.14443 42.796 5.60893 43.216 5.36568L46.2453 3.61568C46.6618 3.37243 47.199 3.51593 47.4405 3.93768C47.6838 4.35593 47.5403 4.89143 47.1203 5.13468L44.091 6.88468C43.951 6.96343 43.8005 7.00018 43.6535 7.00018Z" fill="white"/>
<path d="M48.793 12.25H45.293C44.81 12.25 44.418 11.858 44.418 11.375C44.418 10.892 44.81 10.5 45.293 10.5H48.793C49.276 10.5 49.668 10.892 49.668 11.375C49.668 11.858 49.276 12.25 48.793 12.25Z" fill="white"/>
<path d="M20.793 12.25H17.293C16.81 12.25 16.418 11.858 16.418 11.375C16.418 10.892 16.81 10.5 17.293 10.5H20.793C21.276 10.5 21.668 10.892 21.668 11.375C21.668 11.858 21.276 12.25 20.793 12.25Z" fill="white"/>
<path d="M22.4316 6.99991C22.2829 6.99991 22.1324 6.96316 21.9941 6.88441L18.9649 5.13441C18.5466 4.89116 18.4031 4.35741 18.6446 3.93741C18.8861 3.51741 19.4234 3.37741 19.8399 3.61541L22.8691 5.36541C23.2874 5.60866 23.4309 6.14241 23.1894 6.56241C23.0266 6.84241 22.7309 6.99991 22.4316 6.99991Z" fill="white"/>
</svg>
