<svg width="56" height="56" viewBox="0 0 56 56" fill="none" xmlns="http://www.w3.org/2000/svg">
<g clip-path="url(#clip0_53022_4677)">
<path d="M55.2232 30.24C54.3569 28.9013 52.8869 28.105 51.2857 28.105C50.3844 28.105 49.5007 28.3675 48.7394 28.8575C46.7619 30.1437 46.0794 32.6725 47.0419 34.755L41.6432 38.4212C40.5144 36.8288 38.9832 35.5337 37.1894 34.7113L41.6957 21.9013C42.6407 22.1725 43.6382 22.3125 44.6619 22.3125C47.1469 22.3125 49.4569 21.4987 51.3119 20.1075C51.3557 20.0725 51.3907 20.0463 51.4257 20.0113C54.0857 17.9725 55.8094 14.77 55.8094 11.1475C55.8094 5.005 50.8044 0 44.6619 0C40.0332 0 36.0519 2.82625 34.3632 6.85125L31.3444 5.59125C31.5282 4.59375 31.3794 3.57 30.8982 2.65125C30.3382 1.54 29.3669 0.72625 28.1857 0.34125C27.7219 0.18375 27.2319 0.11375 26.7507 0.11375C26.0244 0.11375 25.2894 0.28875 24.6244 0.62125C23.5132 1.19 22.6994 2.1525 22.3144 3.3425C21.9294 4.5325 22.0344 5.78375 22.6032 6.895C23.1719 8.00625 24.1344 8.82875 25.3244 9.21375C25.7882 9.3625 26.2694 9.44125 26.7507 9.44125C27.4857 9.44125 28.2119 9.2575 28.8769 8.925C29.7607 8.47 30.4607 7.76125 30.9069 6.895L33.9169 8.14625C33.6369 9.1 33.4969 10.1062 33.4969 11.1475C33.4969 12.46 33.7244 13.7113 34.1357 14.875L23.7582 19.3988C21.9207 15.7675 18.1494 13.2738 13.8094 13.2738C12.3832 13.2738 11.0007 13.545 9.74067 14.0437L7.18567 8.8025C8.03442 8.295 8.69067 7.51625 9.07567 6.57125C9.55692 5.4075 9.54817 4.13 9.06692 2.96625C8.34942 1.2075 6.63442 0.07 4.72692 0.07C4.10567 0.07 3.49317 0.1925 2.91567 0.4375C0.509421 1.42625 -0.628078 4.2 0.378172 6.5975C0.859422 7.76125 1.76942 8.67125 2.93317 9.14375C3.50192 9.38 4.11442 9.5025 4.72692 9.5025C5.12942 9.5025 5.53192 9.45 5.92567 9.345L8.49817 14.6125C5.02442 16.5113 2.65317 20.195 2.65317 24.4125C2.65317 28.0175 4.37692 31.2375 7.04567 33.2762C7.08067 33.3112 7.12442 33.3462 7.16817 33.3725C9.02317 34.755 11.3244 35.5688 13.8094 35.5688C16.2857 35.5688 18.5869 34.755 20.4419 33.3725C20.4944 33.3462 20.5382 33.3112 20.5819 33.2675C20.7307 33.1538 20.8707 33.04 21.0019 32.9175L24.4582 37.1613C22.5594 39.165 21.3869 41.8688 21.3869 44.8438C21.3869 45.5525 21.4569 46.2438 21.5882 46.9263L17.3619 47.8537C16.6969 46.025 14.9469 44.7563 12.9519 44.7563C12.6457 44.7563 12.3394 44.7825 12.0332 44.8438C10.8082 45.0887 9.74942 45.7975 9.04942 46.8475C8.35817 47.8888 8.10442 49.14 8.34942 50.3563C8.79567 52.5525 10.7207 54.1362 12.9519 54.1362C13.2669 54.1362 13.5644 54.1012 13.8707 54.04C15.0957 53.795 16.1632 53.0863 16.8544 52.045C17.4232 51.1963 17.6944 50.1987 17.6332 49.1925L21.9294 48.2563C22.6294 50.4438 23.9944 52.3338 25.7707 53.69C25.7707 53.69 25.7707 53.69 25.7794 53.6987C25.8319 53.7337 25.8844 53.7775 25.9369 53.8125C27.7919 55.1862 30.0757 55.9913 32.5432 55.9913C35.0194 55.9913 37.3207 55.1775 39.1757 53.795C39.2282 53.7687 39.2719 53.7337 39.3157 53.69C41.9757 51.6512 43.6907 48.4488 43.6907 44.835C43.6907 42.9363 43.2182 41.1425 42.3694 39.5762L47.7944 35.8925C48.6782 36.89 49.9382 37.4675 51.3032 37.4675C52.2044 37.4675 53.0882 37.1963 53.8494 36.7062C54.8994 36.0325 55.6169 34.9738 55.8794 33.7487C56.1507 32.5325 55.9144 31.2813 55.2232 30.24ZM35.6144 47.3638C36.4807 46.55 37.0144 45.395 37.0144 44.1175C37.0144 41.6587 35.0019 39.6463 32.5432 39.6463C30.0757 39.6463 28.0719 41.6587 28.0719 44.1175C28.0719 45.395 28.6057 46.5413 29.4719 47.3638C27.3107 48.09 26.0507 49.5863 25.6919 51.8C24.4669 50.6012 23.5569 49.0788 23.1019 47.3813C23.1019 47.355 23.0932 47.3288 23.0932 47.3112C23.0844 47.2675 23.0757 47.2325 23.0582 47.1975C23.0494 47.1887 23.0494 47.18 23.0494 47.1712C22.8657 46.4275 22.7694 45.6488 22.7694 44.8438C22.7694 39.4538 27.1532 35.0612 32.5519 35.0612C33.8032 35.0612 35.0019 35.2975 36.1044 35.7262L36.1132 35.735H36.1219C38.1169 36.5225 39.7882 37.9487 40.8994 39.7513C40.9082 39.76 40.9169 39.7687 40.9169 39.7775C41.8094 41.2475 42.3257 42.9888 42.3257 44.8438C42.3257 47.565 41.2057 50.0238 39.4032 51.8088C39.0532 49.5863 37.7757 48.09 35.6144 47.3638ZM9.71442 15.54C10.9657 14.9625 12.3482 14.6388 13.8182 14.6388C17.8432 14.6388 21.2994 17.08 22.8044 20.5537V20.5713C22.8044 20.58 22.8132 20.58 22.8132 20.5888C23.3207 21.77 23.6007 23.065 23.6007 24.4212C23.6007 27.1425 22.4807 29.6012 20.6782 31.3862C20.3282 29.1637 19.0594 27.6763 16.8894 26.9412C17.7557 26.1363 18.2894 24.9813 18.2894 23.7038C18.2894 21.2362 16.2769 19.2325 13.8182 19.2325C11.3507 19.2325 9.34692 21.2362 9.34692 23.7038C9.34692 24.9813 9.88067 26.1275 10.7469 26.95C8.58567 27.6762 7.32567 29.1637 6.96692 31.3775C5.16442 29.61 4.04442 27.1512 4.04442 24.4212C4.03567 20.4925 6.37192 17.0975 9.71442 15.54ZM44.6619 1.37375C50.0432 1.37375 54.4357 5.7575 54.4357 11.1562C54.4357 13.8687 53.3157 16.3363 51.5219 18.1125C51.1632 15.89 49.8944 14.4113 47.7332 13.685C48.5994 12.8713 49.1332 11.7163 49.1332 10.4388C49.1332 7.97125 47.1207 5.9675 44.6619 5.9675C42.1944 5.9675 40.1907 7.97125 40.1907 10.4388C40.1907 11.7163 40.7244 12.8625 41.5907 13.685C39.4294 14.4113 38.1694 15.8988 37.8107 18.1125C36.9007 17.2288 36.1657 16.1613 35.6582 14.9713V14.9625C35.1682 13.79 34.8882 12.5125 34.8882 11.1562C34.8882 10.0625 35.0719 9.0125 35.3957 8.0325C35.4132 7.98875 35.4219 7.945 35.4394 7.90125C36.7782 4.10375 40.4094 1.37375 44.6619 1.37375ZM22.0082 31.9725C23.8457 29.9862 24.9657 27.335 24.9657 24.4212C24.9657 23.1 24.7382 21.84 24.3182 20.6675C24.3182 20.6675 24.3182 20.6675 24.3182 20.6588L34.6869 16.135C35.4482 17.6575 36.5594 18.9875 37.9069 20.0025C37.9332 20.0375 37.9769 20.0637 38.0119 20.0987C38.7469 20.6412 39.5432 21.105 40.4007 21.455L35.9032 34.2125C34.8357 33.8713 33.7069 33.6962 32.5432 33.6962C29.8657 33.6962 27.4069 34.65 25.4732 36.225L22.0082 31.9725Z" fill="white"/>
</g>
<defs>
<clipPath id="clip0_53022_4677">
<rect width="56" height="56" fill="white"/>
</clipPath>
</defs>
</svg>
