<svg width="57" height="56" viewBox="0 0 57 56" fill="none" xmlns="http://www.w3.org/2000/svg">
<g clip-path="url(#clip0_53022_4692)">
<path fill-rule="evenodd" clip-rule="evenodd" d="M34.1664 44.3333C34.1664 38.5384 38.8716 33.8333 44.6664 33.8333C50.4613 33.8333 55.1664 38.5384 55.1664 44.3333C55.1664 50.1281 50.4613 54.8333 44.6664 54.8333C38.8716 54.8333 34.1664 50.1281 34.1664 44.3333ZM42.5712 47.642L40.0967 45.1675C39.6414 44.7122 39.6414 43.9731 40.0967 43.5178C40.552 43.0625 41.2911 43.0625 41.7464 43.5178L43.3961 45.1675L47.5202 41.0433C47.9755 40.588 48.7146 40.588 49.1699 41.0433C49.6252 41.4986 49.6252 42.2377 49.1699 42.693L44.2209 47.642C43.7656 48.0973 43.0265 48.0973 42.5712 47.642Z" fill="white"/>
<path fill-rule="evenodd" clip-rule="evenodd" d="M23.6615 10.4626C22.1203 10.4626 20.6421 11.0728 19.549 12.159L19.5361 12.1718C18.443 13.265 17.8281 14.749 17.8281 16.296V18.6293C17.8281 20.1763 18.443 21.6603 19.5361 22.7546C20.6305 23.8478 22.1145 24.4626 23.6615 24.4626C25.2085 24.4626 26.6925 23.8478 27.7868 22.7546C28.88 21.6603 29.4948 20.1763 29.4948 18.6293V16.296C29.4948 14.749 28.88 13.265 27.7868 12.1718C26.6925 11.0775 25.2085 10.4626 23.6615 10.4626ZM23.6615 12.796C22.7363 12.796 21.8496 13.1623 21.194 13.8133L21.187 13.8215C20.5301 14.4783 20.1615 15.3685 20.1615 16.296V18.6293C20.1615 19.5545 20.5278 20.4411 21.1788 21.0968L21.187 21.105C21.8426 21.7606 22.7328 22.1293 23.6615 22.1293C24.5901 22.1293 25.4803 21.7606 26.136 21.105C26.7928 20.4481 27.1615 19.558 27.1615 18.6293V16.296C27.1615 15.3685 26.7928 14.4783 26.136 13.8215C25.4803 13.1646 24.5901 12.796 23.6615 12.796Z" fill="white"/>
<path fill-rule="evenodd" clip-rule="evenodd" d="M34.1641 32.6667C34.1641 31.1197 33.5492 29.6357 32.4561 28.5414C31.3617 27.4482 29.8777 26.8334 28.3307 26.8334H18.9974C17.4504 26.8334 15.9664 27.4482 14.8721 28.5414C13.7789 29.6357 13.1641 31.1197 13.1641 32.6667C13.1641 33.3107 13.6867 33.8334 14.3307 33.8334C14.9747 33.8334 15.4974 33.3107 15.4974 32.6667C15.4974 31.738 15.8661 30.8479 16.5229 30.1922C17.1786 29.5354 18.0687 29.1667 18.9974 29.1667H28.3307C29.2594 29.1667 30.1496 29.5354 30.8052 30.1922C31.4621 30.8479 31.8307 31.738 31.8307 32.6667C31.8307 33.3107 32.3534 33.8334 32.9974 33.8334C33.6414 33.8334 34.1641 33.3107 34.1641 32.6667Z" fill="white"/>
<path fill-rule="evenodd" clip-rule="evenodd" d="M30.8179 48.1845C27.8336 50.365 25.1643 51.8094 23.9101 52.444C23.7573 52.5164 23.5799 52.5187 23.4259 52.4499C21.1323 51.2891 14.4986 47.621 9.55426 41.8449C6.33893 38.0882 3.82943 33.4285 3.82943 27.9627V13.5C3.82943 12.856 3.30676 12.3333 2.66276 12.3333C2.01876 12.3333 1.49609 12.856 1.49609 13.5V27.9627C1.49609 34.0165 4.22026 39.2012 7.78209 43.3627C12.9948 49.4527 19.9854 53.326 22.3759 54.5336C22.3818 54.5371 22.3888 54.5406 22.3946 54.5441C23.1961 54.9302 24.1318 54.9302 24.9333 54.5417C24.9391 54.5394 24.9449 54.5359 24.9508 54.5336C26.2586 53.8721 29.0609 52.3589 32.1946 50.0675C32.7138 49.6884 32.8281 48.9569 32.4478 48.4377C32.0674 47.9174 31.3371 47.8042 30.8179 48.1845Z" fill="white"/>
<path fill-rule="evenodd" clip-rule="evenodd" d="M3.82943 14V10.9958C3.82943 10.682 4.07793 10.4253 4.39059 10.4137C4.39643 10.4125 4.40109 10.4125 4.40693 10.4125C10.3056 10.1115 16.7059 8.20867 23.3326 3.514C23.5333 3.37167 23.8004 3.37168 23.9999 3.51285H24.0023C30.5764 8.11768 37.0491 10.0928 42.9163 10.4148C42.9233 10.4148 42.9291 10.416 42.9349 10.416C43.2453 10.4277 43.4903 10.682 43.4903 10.9923V10.9947C43.4961 15.5937 43.4961 27.9627 43.4961 27.9627C43.4961 28.7198 43.4483 29.4619 43.3561 30.1887C43.2756 30.8269 43.7294 31.4113 44.3688 31.4918C45.0069 31.5723 45.5914 31.1185 45.6719 30.4804C45.7746 29.659 45.8294 28.8202 45.8294 27.9627C45.8294 27.9627 45.8294 15.5925 45.8236 10.9912C45.8236 9.43485 44.5963 8.15384 43.0423 8.085C37.5473 7.78284 31.4958 5.91268 25.3404 1.60185C24.3336 0.894846 22.9896 0.897183 21.9839 1.61002C15.7854 6.00135 9.80626 7.80034 4.28793 8.08267C2.72926 8.14917 1.49609 9.43251 1.49609 10.9947V14C1.49609 14.644 2.01876 15.1667 2.66276 15.1667C3.30676 15.1667 3.82943 14.644 3.82943 14Z" fill="white"/>
</g>
<defs>
<clipPath id="clip0_53022_4692">
<rect width="56" height="56" fill="white" transform="translate(0.332031)"/>
</clipPath>
</defs>
</svg>
