<svg width="24" height="24" viewBox="0 0 24 24" fill="none" xmlns="http://www.w3.org/2000/svg">
<path fill-rule="evenodd" clip-rule="evenodd" d="M12 0C14.235 0.0255044 16.2541 0.574807 18.0574 1.64791C19.8391 2.69959 21.3212 4.19078 22.362 5.97888C23.4286 7.79297 23.9746 9.82433 24 12.073C23.9367 15.1496 22.9663 17.7774 21.0888 19.9563C19.2113 22.1352 16.8067 23.4832 14.3175 23.9999V15.3739H16.6708L17.203 11.9841H13.6395V9.76383C13.6197 9.30355 13.7653 8.85139 14.0499 8.4891C14.3349 8.12581 14.8367 7.93487 15.5554 7.91628H17.7073V4.94686C17.6764 4.93693 17.3835 4.89765 16.8284 4.82901C16.1989 4.75536 15.5658 4.71602 14.932 4.71116C13.4975 4.71778 12.363 5.12242 11.5286 5.92508C10.6941 6.72751 10.2678 7.88847 10.2497 9.40793V11.9841H7.53783V15.3739H10.2497V23.9999C7.19328 23.4832 4.78868 22.1352 2.9112 19.9563C1.03371 17.7774 0.0633511 15.1496 0 12.073C0.0253463 9.82423 0.571329 7.79287 1.63795 5.97888C2.67876 4.19078 4.1609 2.69959 5.94263 1.64791C7.74581 0.575014 9.76492 0.0257111 12 0Z" fill="#ADADAD"/>
</svg>
