<svg width="24" height="24" viewBox="0 0 24 24" fill="none" xmlns="http://www.w3.org/2000/svg">
<path fill-rule="evenodd" clip-rule="evenodd" d="M24 12C24 18.6274 18.6274 24 12 24C5.37258 24 0 18.6274 0 12C0 5.37258 5.37258 0 12 0C18.6274 0 24 5.37258 24 12ZM19.4414 12.1839C19.4698 12.0338 19.4893 11.8821 19.5 11.7298C19.5064 11.5347 19.5023 11.3394 19.4877 11.1448C19.4005 9.61476 18.5877 8.23612 17.3182 7.22021C15.9627 6.13885 14.0809 5.45703 12 5.45703C7.85727 5.45703 4.5 8.12294 4.5 11.4175C4.5 13.557 5.91818 15.4348 8.04545 16.4861C8.97718 16.9429 9.98295 17.2296 11.0155 17.3329C11.1232 17.3449 11.2218 17.3992 11.2895 17.4838C11.3573 17.5685 11.3887 17.6765 11.3768 17.7843L11.22 19.1929C11.2128 19.2653 11.2249 19.3383 11.2553 19.4044C11.2856 19.4704 11.333 19.5272 11.3926 19.5689C11.4522 19.6106 11.5218 19.6356 11.5943 19.6414C11.6668 19.6473 11.7395 19.6337 11.805 19.602C14.9086 18.1034 16.7659 16.5625 17.8745 15.2275C18.075 14.9848 18.7309 14.0629 18.8673 13.8202C19.1522 13.3122 19.3465 12.7585 19.4414 12.1839ZM9.93083 12.7377C9.96711 12.7732 9.99584 12.8157 10.0153 12.8625C10.0347 12.9094 10.0445 12.9597 10.044 13.0104C10.0442 13.0609 10.0344 13.1109 10.0152 13.1575C9.99606 13.2042 9.96787 13.2466 9.93227 13.2823C9.89667 13.318 9.85436 13.3464 9.80779 13.3657C9.76121 13.385 9.71127 13.395 9.66083 13.395H8.12674C8.02486 13.3946 7.92726 13.354 7.85522 13.282C7.78319 13.2099 7.74256 13.1123 7.7422 13.0104V10.1127C7.74186 10.062 7.7517 10.0117 7.77114 9.96488C7.79058 9.91804 7.81923 9.87557 7.85538 9.83999C7.90905 9.78615 7.97753 9.7495 8.05209 9.73469C8.12666 9.71988 8.20395 9.72758 8.27413 9.75682C8.3443 9.78606 8.40419 9.83551 8.44618 9.89889C8.48817 9.96227 8.51036 10.0367 8.50992 10.1127V12.6259H9.66083C9.71103 12.6255 9.76079 12.6352 9.80717 12.6544C9.85355 12.6736 9.8956 12.702 9.93083 12.7377ZM11.182 13.0944V10.0303C11.1818 9.99059 11.1738 9.95133 11.1584 9.91474C11.143 9.87816 11.1205 9.84498 11.0923 9.8171C11.064 9.78923 11.0305 9.76721 10.9937 9.75231C10.9569 9.73741 10.9176 9.72993 10.8779 9.73029H10.7102C10.6306 9.73029 10.5543 9.76189 10.498 9.81815C10.4418 9.87441 10.4102 9.95072 10.4102 10.0303V13.0944C10.4102 13.1739 10.4418 13.2502 10.498 13.3065C10.5543 13.3628 10.6306 13.3944 10.7102 13.3944H10.882C10.9614 13.394 11.0375 13.3623 11.0937 13.3061C11.1499 13.2499 11.1816 13.1738 11.182 13.0944ZM14.7418 10.1125V12.9939C14.7419 13.0975 14.7017 13.1972 14.6297 13.2717C14.5577 13.3462 14.4595 13.3899 14.3559 13.3934C14.2589 13.3919 14.1659 13.3539 14.0955 13.2871C14.0867 13.28 13.8692 12.9985 13.5984 12.648L13.5984 12.6479C13.4493 12.455 13.2841 12.2411 13.1287 12.0407C12.8014 11.6193 12.5178 11.2512 12.5178 11.2512V13.0089C12.518 13.0834 12.4966 13.1564 12.456 13.2188C12.4154 13.2813 12.3575 13.3306 12.2894 13.3607C12.2212 13.3908 12.1458 13.4004 12.0723 13.3883C11.9988 13.3762 11.9304 13.3429 11.8755 13.2925C11.8359 13.2567 11.8043 13.2129 11.7827 13.164C11.7611 13.1152 11.7499 13.0623 11.75 13.0089V10.1289C11.7488 10.0276 11.7864 9.92977 11.8551 9.85544C11.9239 9.7811 12.0185 9.73597 12.1196 9.72935C12.1768 9.72841 12.2334 9.74016 12.2855 9.76374C12.3377 9.78731 12.3839 9.82214 12.4209 9.86571C12.4373 9.8848 13.2296 10.9157 13.6755 11.5021C13.8528 11.7312 13.9755 11.8921 13.9755 11.8921V10.1193C13.9762 10.0179 14.0168 9.92089 14.0885 9.84919C14.1602 9.77748 14.2573 9.73688 14.3587 9.73617C14.4591 9.73615 14.5556 9.77558 14.6272 9.84598C14.6989 9.91637 14.7401 10.0121 14.7418 10.1125ZM16.0882 12.6244V11.9426L17.2378 11.9439C17.3394 11.9439 17.4369 11.9036 17.5087 11.8317C17.5806 11.7598 17.621 11.6624 17.621 11.5608C17.621 11.4591 17.5806 11.3617 17.5087 11.2898C17.4369 11.2179 17.3394 11.1776 17.2378 11.1776H16.0882V10.4958H17.2337C17.286 10.4989 17.3384 10.4913 17.3877 10.4734C17.437 10.4555 17.4821 10.4277 17.5203 10.3918C17.5584 10.3558 17.5888 10.3125 17.6096 10.2643C17.6304 10.2162 17.6411 10.1643 17.6411 10.1119C17.6411 10.0595 17.6304 10.0076 17.6096 9.95946C17.5888 9.91132 17.5584 9.86795 17.5203 9.832C17.4821 9.79605 17.437 9.76828 17.3877 9.7504C17.3384 9.73252 17.286 9.72491 17.2337 9.72803H15.6996C15.5981 9.72838 15.5008 9.76887 15.429 9.84065C15.3573 9.91244 15.3168 10.0097 15.3164 10.1112V13.0076C15.3164 13.1093 15.3567 13.2069 15.4286 13.279C15.5004 13.3511 15.5978 13.3918 15.6996 13.3921H17.2378C17.2901 13.3952 17.3425 13.3876 17.3918 13.3697C17.4411 13.3519 17.4862 13.3241 17.5244 13.2881C17.5625 13.2522 17.5929 13.2088 17.6137 13.1607C17.6345 13.1126 17.6452 13.0607 17.6452 13.0083C17.6452 12.9558 17.6345 12.904 17.6137 12.8558C17.5929 12.8077 17.5625 12.7643 17.5244 12.7284C17.4862 12.6924 17.4411 12.6646 17.3918 12.6468C17.3425 12.6289 17.2901 12.6213 17.2378 12.6244H16.0882Z" fill="#ADADAD"/>
</svg>
