<svg width="24" height="24" viewBox="0 0 24 24" fill="none" xmlns="http://www.w3.org/2000/svg">
<path fill-rule="evenodd" clip-rule="evenodd" d="M23.9961 12C23.9961 18.6274 18.6235 24 11.9961 24C5.36868 24 -0.00390625 18.6274 -0.00390625 12C-0.00390625 5.37258 5.36868 0 11.9961 0C18.6235 0 23.9961 5.37258 23.9961 12ZM8.06473 7.48633H15.9184C16.2323 7.48633 16.543 7.54817 16.833 7.66833C17.1229 7.78848 17.3864 7.96459 17.6082 8.18659C17.8301 8.40859 18.006 8.67214 18.126 8.96216C18.2459 9.25218 18.3076 9.563 18.3074 9.87685V14.1242C18.3076 14.4381 18.2459 14.7489 18.126 15.0389C18.006 15.3289 17.8301 15.5925 17.6082 15.8145C17.3864 16.0365 17.1229 16.2126 16.833 16.3328C16.543 16.4529 16.2323 16.5147 15.9184 16.5147H8.06473C7.75088 16.5147 7.4401 16.4529 7.15015 16.3328C6.86021 16.2126 6.59678 16.0365 6.37493 15.8145C6.15307 15.5925 5.97714 15.3289 5.85718 15.0389C5.73721 14.7489 5.67557 14.4381 5.67578 14.1242V9.87685C5.67557 9.563 5.73721 9.25218 5.85718 8.96216C5.97714 8.67214 6.15307 8.40859 6.37493 8.18659C6.59678 7.96459 6.86021 7.78848 7.15015 7.66833C7.4401 7.54817 7.75088 7.48633 8.06473 7.48633ZM13.6558 12.0005L10.3274 10.0647V13.9363L13.6558 12.0005Z" fill="#ADADAD"/>
</svg>
