<svg width="56" height="56" viewBox="0 0 56 56" fill="none" xmlns="http://www.w3.org/2000/svg">
<rect width="56" height="56" rx="28" fill="#8DC047"/>
<path d="M27.9998 12C18.7961 12 11.3037 18.1191 11.3037 25.6393C11.3037 32.3748 17.2447 38.018 25.2658 39.0908C25.8098 39.2062 26.55 39.4525 26.7378 39.9172C26.9048 40.3388 26.8477 40.9899 26.7907 41.4296L26.5625 42.8571C26.4999 43.2787 26.2286 44.517 28.022 43.7601C29.8183 43.006 37.6445 38.05 41.1507 33.9943C43.5494 31.3507 44.6958 28.6418 44.6958 25.6393C44.6958 18.1191 37.2035 12 27.9998 12ZM21.4647 30.1111H18.1449C17.6649 30.1111 17.2684 29.7117 17.2684 29.2303V22.5505C17.2684 22.0677 17.6649 21.6684 18.1449 21.6684C18.6291 21.6684 19.0215 22.0677 19.0215 22.5505V28.3482H21.4647C21.9488 28.3482 22.3398 28.7448 22.3398 29.2303C22.3398 29.7117 21.9475 30.1111 21.4647 30.1111ZM24.8957 29.2303C24.8957 29.7117 24.5033 30.1111 24.0178 30.1111C23.5378 30.1111 23.1454 29.7117 23.1454 29.2303V22.5505C23.1454 22.0677 23.5378 21.6684 24.0219 21.6684C24.5033 21.6684 24.8957 22.0677 24.8957 22.5505V29.2303ZM32.8834 29.2303C32.8834 29.6088 32.6413 29.9441 32.2823 30.0651C32.1933 30.0944 32.0973 30.1083 32.0054 30.1083C31.7119 30.1083 31.4614 29.9817 31.2959 29.7577L27.8968 25.1134V29.2289C27.8968 29.7104 27.5086 30.1097 27.0189 30.1097C26.5375 30.1097 26.1479 29.7104 26.1479 29.2289V22.5505C26.1479 22.1721 26.3886 21.8368 26.7462 21.7171C26.8297 21.6851 26.9354 21.6712 27.0161 21.6712C27.2874 21.6712 27.5379 21.8173 27.7048 22.0274L31.1303 26.6898V22.5505C31.1303 22.0677 31.5226 21.6684 32.0068 21.6684C32.4868 21.6684 32.8834 22.0677 32.8834 22.5505V29.2303ZM38.247 25.0076C38.7326 25.0076 39.1235 25.4069 39.1235 25.8911C39.1235 26.3739 38.7326 26.7732 38.247 26.7732H35.8052V28.3482H38.247C38.7326 28.3482 39.1235 28.7448 39.1235 29.2303C39.1235 29.7117 38.7326 30.1111 38.247 30.1111H34.9273C34.4472 30.1111 34.0549 29.7117 34.0549 29.2303V22.5505C34.0549 22.0677 34.4472 21.6684 34.9314 21.6684H38.2512C38.7326 21.6684 39.1235 22.0677 39.1235 22.5505C39.1235 23.0389 38.7326 23.4326 38.247 23.4326H35.8052V25.0076H38.247Z" fill="white"/>
</svg>
