<svg width="56" height="56" viewBox="0 0 56 56" fill="none" xmlns="http://www.w3.org/2000/svg">
<rect width="56" height="56" rx="28" fill="#091C3A"/>
<path fill-rule="evenodd" clip-rule="evenodd" d="M16.2789 17.9995H39.7225C40.1074 17.9995 40.4676 18.0941 40.7936 18.2501L29.7682 29.2198C28.7934 30.1947 27.2081 30.1947 26.2333 29.2198L15.2079 18.2501C15.5339 18.0941 15.8941 17.9995 16.2789 17.9995ZM33.3448 28.0001L41.9711 19.4293C42.1271 19.7553 42.2217 20.1155 42.2217 20.5003V35.4998C42.2217 35.8846 42.1271 36.2449 41.9711 36.5708L33.3448 28.0001ZM14.0289 19.4293C13.8729 19.7553 13.7783 20.1155 13.7783 20.5003V35.4998C13.7783 35.8846 13.8729 36.2449 14.0289 36.5708L22.6552 28.0001L14.0289 19.4293ZM30.9466 30.3999L32.1673 29.1792L40.7936 37.7499C40.4676 37.9059 40.1074 38.0005 39.7225 38.0005H16.2789C15.8941 38.0005 15.5339 37.9059 15.2079 37.7499L23.8342 29.1792L25.0548 30.3999C26.6792 32.0242 29.3223 32.0242 30.9466 30.3999Z" fill="white"/>
</svg>
