<svg width="56" height="56" viewBox="0 0 56 56" fill="none" xmlns="http://www.w3.org/2000/svg">
<rect width="56" height="56" rx="28" fill="#091C3A"/>
<path d="M35.8077 32.8455C34.8276 31.8779 33.604 31.8779 32.6301 32.8455C31.8872 33.5821 31.1443 34.3188 30.4139 35.0679C30.2142 35.2739 30.0456 35.3176 29.8022 35.1803C29.3215 34.9181 28.8096 34.7058 28.3476 34.4187C26.1939 33.064 24.3897 31.3223 22.7916 29.3621C21.9988 28.3882 21.2933 27.3457 20.8002 26.172C20.7003 25.9348 20.719 25.7787 20.9125 25.5852C21.6554 24.8673 22.3796 24.1307 23.11 23.394C24.1275 22.3702 24.1275 21.1716 23.1037 20.1416C22.5232 19.5547 21.9426 18.9804 21.362 18.3936C20.7627 17.7943 20.1697 17.1888 19.5641 16.5957C18.584 15.6406 17.3604 15.6406 16.3866 16.6019C15.6374 17.3386 14.9195 18.094 14.1579 18.8181C13.4525 19.4861 13.0967 20.3039 13.0217 21.259C12.9031 22.8134 13.2839 24.2805 13.8208 25.7101C14.9195 28.6691 16.5926 31.2973 18.6215 33.707C21.362 36.9657 24.6332 39.5439 28.46 41.4043C30.183 42.2408 31.9684 42.8838 33.9099 42.9899C35.2458 43.0648 36.407 42.7277 37.3371 41.6852C37.9739 40.9735 38.6918 40.3243 39.366 39.6438C40.3648 38.6325 40.3711 37.4089 39.3785 36.4101C38.1924 35.2177 37 34.0316 35.8077 32.8455Z" fill="#F7F7F7"/>
<path d="M34.6157 27.8701L36.9193 27.4768C36.5572 25.3605 35.5584 23.444 34.0414 21.9208C32.437 20.3164 30.4081 19.3051 28.1733 18.9929L27.8486 21.309C29.5779 21.5524 31.151 22.3328 32.3933 23.5751C33.567 24.7487 34.3348 26.2345 34.6157 27.8701Z" fill="#F7F7F7"/>
<path d="M38.2176 17.8568C35.5582 15.1974 32.1933 13.5181 28.4789 13L28.1543 15.316C31.3631 15.7655 34.2722 17.2201 36.5695 19.5112C38.7482 21.6899 40.1778 24.4429 40.6959 27.4706L42.9995 27.0773C42.3939 23.5689 40.7396 20.3851 38.2176 17.8568Z" fill="#F7F7F7"/>
</svg>
